<svg id="svg" version="1.1" xmlns="http://www.w3.org/2000/svg" xmlns:xlink="http://www.w3.org/1999/xlink" width="400" height="400" viewBox="0, 0, 400,400"><g id="svgg"><path id="path0" d="M0.000 200.000 L 0.000 400.000 200.000 400.000 L 400.000 400.000 400.000 200.000 L 400.000 0.000 200.000 0.000 L 0.000 0.000 0.000 200.000 M173.505 147.225 C 200.005 149.871,216.384 167.509,216.384 193.400 C 216.384 216.889,202.930 233.616,179.975 238.666 C 176.544 239.421,125.514 239.957,124.442 239.249 C 123.373 238.544,124.282 237.725,126.415 237.473 C 129.342 237.126,131.190 236.054,132.700 233.827 L 134.000 231.910 134.000 191.707 L 134.000 151.505 130.500 151.774 C 116.359 152.861,108.556 156.638,103.999 164.601 C 102.551 167.133,101.837 167.608,100.894 166.666 C 100.303 166.074,100.406 165.709,102.169 162.159 C 107.239 151.944,114.900 148.139,133.066 146.809 C 138.715 146.396,168.240 146.699,173.505 147.225 M248.722 147.859 C 248.831 148.617,248.594 148.753,246.722 149.007 C 242.621 149.564,240.094 151.648,239.214 155.200 C 238.407 158.459,238.829 231.491,239.664 233.000 C 241.147 235.679,243.299 237.064,246.578 237.449 C 248.583 237.685,248.827 237.811,248.720 238.557 C 248.536 239.848,219.800 239.896,219.800 238.606 C 219.800 237.951,220.174 237.757,221.919 237.506 C 225.593 236.977,228.318 234.801,229.176 231.711 C 230.029 228.638,229.716 155.689,228.842 153.800 C 227.465 150.827,225.543 149.538,221.700 149.012 C 219.625 148.728,218.721 147.626,220.100 147.062 C 221.989 146.290,248.604 147.031,248.722 147.859 M296.758 147.166 C 297.960 147.927,296.860 148.628,293.746 149.086 C 290.277 149.595,287.822 150.547,285.345 152.341 C 283.828 153.440,253.001 188.597,252.587 189.701 C 252.484 189.975,255.941 193.980,260.270 198.600 C 264.598 203.220,274.439 213.750,282.137 222.000 C 308.877 250.656,318.152 257.106,334.300 258.279 C 339.433 258.652,339.868 260.323,335.050 261.162 C 318.814 263.989,302.433 257.086,286.598 240.743 C 274.966 228.738,242.986 194.261,242.877 193.608 C 242.797 193.130,247.468 186.956,256.095 176.135 C 263.433 166.931,270.553 157.993,271.918 156.274 C 275.328 151.979,274.968 149.468,270.865 148.918 C 269.072 148.678,268.252 147.792,269.242 147.166 C 269.549 146.971,275.740 146.812,283.000 146.812 C 290.260 146.812,296.451 146.971,296.758 147.166 M143.600 193.196 L 143.600 234.856 159.700 234.705 C 177.500 234.537,178.793 234.376,184.757 231.585 C 213.046 218.348,213.051 168.419,184.764 155.017 C 178.461 152.031,177.278 151.875,159.500 151.696 L 143.600 151.536 143.600 193.196 M141.346 252.029 C 143.781 253.944,142.433 257.733,139.301 257.775 L 137.400 257.800 137.278 255.417 C 137.056 251.104,138.569 249.844,141.346 252.029 M153.526 251.900 C 153.439 252.361,152.951 252.643,152.097 252.725 C 150.392 252.890,150.371 253.907,152.069 254.075 C 153.911 254.257,153.973 255.122,152.156 255.274 C 150.120 255.446,149.917 256.313,151.875 256.474 C 154.111 256.659,153.955 257.760,151.670 257.924 C 149.251 258.099,148.800 257.582,148.800 254.631 C 148.800 251.644,149.176 251.200,151.709 251.200 C 153.350 251.200,153.638 251.311,153.526 251.900 M164.726 251.900 C 164.639 252.361,164.151 252.643,163.297 252.725 C 161.592 252.890,161.571 253.907,163.269 254.075 C 165.111 254.257,165.173 255.122,163.356 255.274 C 161.320 255.446,161.117 256.313,163.075 256.474 C 165.311 256.659,165.155 257.760,162.870 257.924 C 160.451 258.099,160.000 257.582,160.000 254.631 C 160.000 251.644,160.376 251.200,162.909 251.200 C 164.550 251.200,164.838 251.311,164.726 251.900 M175.600 252.000 C 177.018 253.418,175.926 255.600,173.800 255.600 C 172.992 255.600,172.800 255.798,172.800 256.629 C 172.800 259.135,171.406 257.513,171.280 254.861 C 171.110 251.269,173.371 249.771,175.600 252.000 M186.557 253.804 C 187.131 255.237,187.600 256.677,187.600 257.004 C 187.600 257.781,186.443 257.777,186.145 257.000 C 185.835 256.193,184.132 256.236,183.669 257.062 C 182.517 259.121,182.037 257.196,183.040 254.534 C 184.669 250.204,185.082 250.118,186.557 253.804 M198.400 251.874 C 198.400 252.245,198.041 252.931,197.601 253.398 L 196.803 254.248 197.801 255.602 C 199.375 257.734,198.362 258.676,196.729 256.600 C 196.296 256.050,195.775 255.600,195.571 255.600 C 195.367 255.600,195.200 256.050,195.200 256.600 C 195.200 257.333,194.987 257.600,194.400 257.600 C 193.671 257.600,193.600 257.333,193.600 254.600 C 193.600 251.867,193.671 251.600,194.400 251.600 C 194.933 251.600,195.200 251.867,195.200 252.400 C 195.200 253.467,195.665 253.408,196.800 252.200 C 197.896 251.034,198.400 250.931,198.400 251.874 M209.600 251.874 C 209.600 252.245,209.241 252.931,208.801 253.398 L 208.003 254.248 209.001 255.602 C 210.575 257.734,209.562 258.676,207.929 256.600 C 207.496 256.050,206.975 255.600,206.771 255.600 C 206.567 255.600,206.400 256.050,206.400 256.600 C 206.400 257.333,206.187 257.600,205.600 257.600 C 204.871 257.600,204.800 257.333,204.800 254.600 C 204.800 251.867,204.871 251.600,205.600 251.600 C 206.133 251.600,206.400 251.867,206.400 252.400 C 206.400 253.467,206.865 253.408,208.000 252.200 C 209.096 251.034,209.600 250.931,209.600 251.874 M217.778 252.500 C 217.896 253.215,218.039 254.430,218.096 255.200 C 218.294 257.869,219.758 257.103,220.000 254.204 C 220.302 250.583,221.600 250.450,221.600 254.039 C 221.600 256.999,220.935 258.000,218.967 258.000 C 217.061 258.000,216.400 257.126,216.400 254.604 C 216.400 251.263,217.338 249.831,217.778 252.500 M230.174 253.300 L 231.104 255.400 231.617 253.695 C 232.753 249.917,234.522 250.768,234.317 254.995 C 234.192 257.551,233.074 258.734,232.682 256.723 L 232.502 255.800 232.211 256.672 C 231.809 257.882,230.889 258.131,230.300 257.189 C 229.715 256.252,229.200 256.163,229.200 257.000 C 229.200 257.330,228.930 257.600,228.600 257.600 C 228.121 257.600,228.000 257.007,228.000 254.667 C 228.000 250.443,228.712 249.995,230.174 253.300 M243.441 251.506 C 243.929 251.832,245.600 256.094,245.600 257.015 C 245.600 257.783,244.441 257.771,244.145 257.000 C 244.018 256.670,243.478 256.400,242.945 256.400 C 242.411 256.400,241.871 256.670,241.745 257.000 C 241.541 257.532,240.000 257.893,240.000 257.409 C 240.000 257.131,241.940 252.020,242.215 251.576 C 242.492 251.128,242.843 251.108,243.441 251.506 M256.368 252.900 L 257.103 254.600 257.391 253.128 C 257.677 251.665,258.548 250.868,259.023 251.636 C 259.347 252.162,258.466 255.951,257.754 257.087 C 257.008 258.278,256.138 257.861,255.819 256.161 C 255.519 254.559,254.979 254.677,254.594 256.428 C 254.386 257.374,254.139 257.619,253.487 257.523 C 252.343 257.355,250.886 252.095,251.878 251.715 C 252.547 251.458,253.184 252.225,253.194 253.300 C 253.203 254.392,253.883 254.122,254.188 252.904 C 254.418 251.989,255.010 251.233,255.516 251.206 C 255.580 251.203,255.964 251.965,256.368 252.900 M268.298 251.700 C 268.516 251.975,269.014 253.190,269.405 254.400 C 269.796 255.610,270.200 256.825,270.301 257.100 C 270.410 257.395,270.157 257.600,269.686 257.600 C 269.246 257.600,268.782 257.330,268.655 257.000 C 268.529 256.670,267.969 256.400,267.413 256.400 C 266.779 256.400,266.400 256.625,266.400 257.000 C 266.400 257.333,266.044 257.600,265.600 257.600 C 264.611 257.600,264.611 257.474,265.598 254.606 C 266.710 251.374,267.428 250.601,268.298 251.700 M280.800 251.953 C 280.800 252.370,280.443 252.800,280.000 252.916 C 279.320 253.094,279.200 253.462,279.200 255.363 C 279.200 257.333,279.105 257.600,278.400 257.600 C 277.691 257.600,277.600 257.333,277.600 255.247 C 277.600 253.230,277.486 252.863,276.800 252.684 C 274.881 252.182,275.940 251.200,278.400 251.200 C 280.484 251.200,280.800 251.299,280.800 251.953 M138.800 254.600 C 138.800 256.140,138.917 256.400,139.609 256.400 C 140.716 256.400,141.433 254.783,140.827 253.651 C 139.957 252.025,138.800 252.567,138.800 254.600 M173.067 253.067 C 172.523 253.611,172.829 254.000,173.800 254.000 C 174.422 254.000,174.800 253.773,174.800 253.400 C 174.800 252.800,173.570 252.563,173.067 253.067 " stroke="none" fill="#fbfbfb" fill-rule="evenodd"></path><path id="path1" d="M131.000 147.633 C 119.101 148.854,113.846 150.449,108.941 154.326 C 106.609 156.170,104.582 158.805,102.885 162.200 C 100.408 167.157,100.914 167.942,103.793 163.610 C 109.216 155.453,118.590 151.200,131.146 151.200 L 134.800 151.200 134.798 190.900 C 134.796 217.369,134.656 231.104,134.376 232.111 C 133.522 235.185,130.452 237.556,126.498 238.196 C 121.866 238.945,126.721 239.200,145.615 239.200 C 174.266 239.200,180.515 238.623,189.101 235.185 C 226.303 220.289,224.457 163.544,186.349 150.583 C 177.651 147.624,147.000 145.991,131.000 147.633 M220.400 147.944 C 220.400 148.133,221.379 148.389,222.575 148.513 C 225.996 148.866,228.597 150.992,229.809 154.424 C 230.696 156.940,230.696 229.460,229.809 231.976 C 228.631 235.314,226.254 237.352,222.731 238.045 C 218.145 238.948,220.596 239.200,233.900 239.194 C 247.789 239.188,250.284 238.949,245.911 238.046 C 242.447 237.331,240.094 235.595,238.949 232.913 C 237.952 230.577,238.155 155.245,239.163 153.284 C 240.607 150.478,243.671 148.400,246.364 148.400 C 247.018 148.400,247.664 148.220,247.800 148.000 C 247.963 147.736,243.337 147.600,234.224 147.600 C 226.621 147.600,220.400 147.755,220.400 147.944 M271.800 148.318 C 276.414 149.892,276.212 151.922,270.761 158.800 C 268.930 161.110,262.133 169.660,255.657 177.800 C 249.182 185.940,243.717 192.813,243.515 193.073 C 243.189 193.492,253.928 205.271,271.162 223.400 C 272.835 225.160,276.796 229.390,279.964 232.800 C 296.869 250.997,306.014 257.335,319.600 260.265 C 325.015 261.434,337.200 260.962,337.200 259.585 C 337.200 259.373,336.615 259.199,335.900 259.199 C 329.124 259.192,318.851 255.509,310.797 250.198 C 302.922 245.005,301.367 243.495,276.423 216.800 C 273.442 213.610,269.646 209.560,267.987 207.800 C 254.092 193.058,251.600 190.347,251.600 189.971 C 251.600 189.766,253.273 187.663,255.317 185.299 C 287.791 147.746,285.390 150.074,293.400 148.364 L 296.600 147.681 283.200 147.658 C 270.069 147.635,269.840 147.649,271.800 148.318 M178.329 152.042 C 195.849 156.292,206.416 171.791,206.392 193.200 C 206.368 215.010,196.285 229.783,178.200 234.506 C 175.223 235.284,173.886 235.344,159.000 235.371 L 143.000 235.400 142.898 193.300 L 142.796 151.200 158.827 151.200 C 173.759 151.200,175.096 151.258,178.329 152.042 " stroke="none" fill="#090909" fill-rule="evenodd"></path><path id="path2" d="M134.200 146.776 C 132.220 146.899,139.780 147.006,151.000 147.014 C 166.396 147.024,169.094 146.964,162.000 146.767 C 150.884 146.459,139.219 146.463,134.200 146.776 M225.200 147.085 C 237.838 147.366,248.708 147.373,248.539 147.100 C 248.436 146.935,242.018 146.839,234.276 146.887 C 226.534 146.935,222.450 147.024,225.200 147.085 M269.242 147.166 C 268.429 147.680,269.021 148.805,270.087 148.772 C 270.875 148.748,270.900 148.704,270.270 148.456 C 268.094 147.599,270.221 147.387,283.000 147.192 L 296.600 146.984 283.200 146.898 C 275.830 146.851,269.549 146.971,269.242 147.166 M125.400 147.600 C 124.053 147.841,123.990 147.891,125.000 147.914 C 125.660 147.929,127.010 147.797,128.000 147.620 C 129.615 147.333,129.656 147.301,128.400 147.307 C 127.630 147.311,126.280 147.442,125.400 147.600 M174.400 147.620 C 176.814 148.050,178.706 148.013,176.600 147.577 C 175.720 147.395,174.460 147.258,173.800 147.273 C 172.900 147.293,173.050 147.380,174.400 147.620 M296.800 147.704 C 296.800 148.055,296.485 148.424,296.100 148.524 C 295.444 148.696,295.445 148.710,296.113 148.754 C 296.836 148.801,297.506 147.773,297.049 147.316 C 296.912 147.179,296.800 147.353,296.800 147.704 M120.800 148.400 C 120.008 148.654,119.967 148.720,120.600 148.720 C 121.040 148.720,121.850 148.576,122.400 148.400 C 123.192 148.146,123.233 148.080,122.600 148.080 C 122.160 148.080,121.350 148.224,120.800 148.400 M179.600 148.400 C 180.150 148.576,180.960 148.720,181.400 148.720 C 182.033 148.720,181.992 148.654,181.200 148.400 C 180.650 148.224,179.840 148.080,179.400 148.080 C 178.767 148.080,178.808 148.146,179.600 148.400 M117.400 149.200 C 116.896 149.417,116.822 149.544,117.200 149.544 C 117.530 149.544,118.160 149.389,118.600 149.200 C 119.104 148.983,119.178 148.856,118.800 148.856 C 118.470 148.856,117.840 149.011,117.400 149.200 M183.000 149.200 C 183.440 149.389,184.070 149.544,184.400 149.544 C 184.778 149.544,184.704 149.417,184.200 149.200 C 183.760 149.011,183.130 148.856,182.800 148.856 C 182.422 148.856,182.496 148.983,183.000 149.200 M221.633 148.943 C 221.725 149.022,222.520 149.197,223.400 149.332 C 224.490 149.499,224.809 149.455,224.400 149.195 C 223.853 148.846,221.245 148.609,221.633 148.943 M243.137 149.608 C 241.514 150.466,239.199 153.045,239.202 153.991 C 239.204 154.326,239.486 154.060,239.830 153.401 C 241.059 151.044,242.855 149.728,245.600 149.174 C 246.963 148.899,246.968 148.891,245.800 148.864 C 245.140 148.848,243.942 149.183,243.137 149.608 M272.257 149.197 C 272.729 149.387,273.404 149.956,273.757 150.460 C 274.111 150.965,274.400 151.189,274.400 150.959 C 274.400 150.343,272.641 148.796,271.974 148.825 C 271.658 148.839,271.786 149.006,272.257 149.197 M291.000 149.210 C 290.466 149.447,290.798 149.486,292.000 149.327 C 292.990 149.196,293.875 149.024,293.967 148.944 C 294.314 148.643,291.764 148.872,291.000 149.210 M112.754 151.065 C 109.403 152.727,104.847 157.012,103.243 160.011 C 102.069 162.205,102.530 161.745,104.574 158.682 C 106.725 155.461,109.558 153.044,113.360 151.189 C 115.142 150.319,116.399 149.606,116.154 149.604 C 115.908 149.602,114.378 150.259,112.754 151.065 M185.600 150.000 C 185.930 150.213,186.470 150.388,186.800 150.388 C 187.333 150.388,187.333 150.345,186.800 150.000 C 186.470 149.787,185.930 149.612,185.600 149.612 C 185.067 149.612,185.067 149.655,185.600 150.000 M226.649 150.897 C 227.461 151.610,228.453 152.915,228.854 153.797 C 229.255 154.678,229.586 155.163,229.591 154.874 C 229.611 153.704,226.431 149.600,225.505 149.600 C 225.322 149.600,225.837 150.183,226.649 150.897 M287.787 150.423 C 285.343 151.610,283.571 153.229,279.578 157.921 C 277.576 160.274,277.071 160.940,278.457 159.400 C 283.150 154.185,285.793 151.778,288.000 150.712 C 289.210 150.127,290.020 149.647,289.800 149.644 C 289.580 149.642,288.674 149.992,287.787 150.423 M128.800 151.622 C 127.666 151.812,128.295 151.846,130.500 151.715 L 134.000 151.505 134.000 191.618 L 134.000 231.730 133.005 233.428 C 132.457 234.362,131.512 235.523,130.905 236.007 C 129.927 236.787,129.915 236.821,130.800 236.310 C 131.350 235.993,132.385 234.873,133.100 233.821 L 134.400 231.910 134.400 191.555 L 134.400 151.200 132.500 151.260 C 131.455 151.293,129.790 151.456,128.800 151.622 M143.200 193.200 L 143.200 235.200 158.300 235.153 C 166.605 235.127,173.933 234.992,174.585 234.853 C 175.237 234.714,168.532 234.656,159.685 234.725 L 143.600 234.850 143.600 193.196 L 143.600 151.542 159.467 151.671 C 168.193 151.742,174.628 151.675,173.767 151.523 C 172.905 151.371,165.675 151.236,157.700 151.223 L 143.200 151.200 143.200 193.200 M122.400 152.413 C 121.754 152.629,122.180 152.666,123.600 152.519 C 124.810 152.394,125.875 152.226,125.967 152.146 C 126.287 151.865,123.391 152.083,122.400 152.413 M176.033 152.147 C 176.125 152.228,176.920 152.404,177.800 152.538 C 178.915 152.707,179.158 152.671,178.600 152.419 C 177.832 152.071,175.690 151.844,176.033 152.147 M118.800 153.206 C 118.378 153.482,118.615 153.523,119.600 153.342 C 121.325 153.025,121.651 152.798,120.367 152.806 C 119.835 152.809,119.130 152.989,118.800 153.206 M193.200 152.979 C 193.200 153.089,193.740 153.459,194.400 153.800 C 195.060 154.141,195.600 154.331,195.600 154.221 C 195.600 154.111,195.060 153.741,194.400 153.400 C 193.740 153.059,193.200 152.869,193.200 152.979 M273.481 154.239 C 273.086 154.768,272.908 155.200,273.085 155.200 C 273.434 155.200,274.538 153.601,274.328 153.400 C 274.257 153.333,273.877 153.711,273.481 154.239 M115.729 154.130 C 113.630 154.906,113.719 155.246,115.836 154.540 C 116.916 154.179,117.875 153.820,117.967 153.742 C 118.317 153.443,116.944 153.681,115.729 154.130 M184.794 155.024 C 190.602 157.807,195.840 162.429,199.011 167.566 C 200.486 169.955,201.288 170.872,200.353 169.100 C 197.000 162.744,186.363 153.600,182.323 153.600 C 182.048 153.600,183.160 154.241,184.794 155.024 M196.000 154.500 C 196.110 154.623,197.370 155.560,198.800 156.581 C 200.658 157.908,200.956 158.048,199.845 157.072 C 198.528 155.917,195.393 153.819,196.000 154.500 M238.652 155.700 C 238.326 156.917,238.411 229.956,238.740 231.124 C 238.883 231.632,239.000 214.667,239.000 193.424 C 239.000 172.181,238.976 154.800,238.947 154.800 C 238.917 154.800,238.785 155.205,238.652 155.700 M111.000 156.661 C 108.485 158.473,106.572 160.256,105.487 161.800 C 105.023 162.460,105.714 161.906,107.022 160.570 C 108.330 159.233,110.388 157.478,111.595 156.670 C 112.802 155.861,113.612 155.204,113.395 155.210 C 113.178 155.215,112.100 155.868,111.000 156.661 M271.021 157.400 C 270.210 158.390,269.693 159.193,269.873 159.184 C 270.199 159.169,272.974 155.600,272.661 155.600 C 272.570 155.600,271.833 156.410,271.021 157.400 M229.792 193.000 C 229.792 213.460,229.841 221.771,229.900 211.470 C 229.959 201.168,229.959 184.428,229.900 174.270 C 229.840 164.111,229.792 172.540,229.792 193.000 M201.600 158.462 C 201.600 158.785,205.289 162.445,205.450 162.283 C 205.523 162.211,204.686 161.269,203.591 160.191 C 202.496 159.112,201.600 158.335,201.600 158.462 M256.037 176.208 C 248.757 185.343,242.803 193.128,242.806 193.508 C 242.810 193.889,245.079 196.540,247.848 199.400 L 252.883 204.600 248.042 199.348 C 245.379 196.460,243.200 193.802,243.200 193.441 C 243.200 193.081,248.558 186.084,255.106 177.893 C 269.293 160.147,269.723 159.600,269.470 159.600 C 269.362 159.600,263.317 167.074,256.037 176.208 M270.425 168.297 C 267.689 171.510,265.638 174.023,265.868 173.882 C 266.552 173.459,276.066 162.398,275.719 162.428 C 275.544 162.443,273.161 165.084,270.425 168.297 M206.243 163.635 C 207.725 165.332,210.443 169.596,211.466 171.833 C 212.587 174.281,213.144 174.799,212.184 172.500 C 210.933 169.504,207.071 163.635,205.909 162.965 C 205.629 162.803,205.779 163.105,206.243 163.635 M103.337 164.999 C 102.117 166.930,101.479 167.211,100.832 166.100 C 100.608 165.715,100.419 165.603,100.412 165.851 C 100.356 167.918,102.382 167.356,103.838 164.900 C 105.179 162.636,104.780 162.716,103.337 164.999 M201.617 172.056 C 201.608 172.197,201.956 173.097,202.391 174.056 C 202.826 175.015,203.179 175.530,203.174 175.200 C 203.167 174.613,201.650 171.551,201.617 172.056 M260.025 180.297 C 257.289 183.510,255.238 186.023,255.468 185.882 C 256.152 185.459,265.666 174.398,265.319 174.428 C 265.144 174.443,262.761 177.084,260.025 180.297 M204.068 178.800 C 204.088 179.839,204.718 181.546,204.732 180.600 C 204.738 180.160,204.589 179.440,204.400 179.000 C 204.189 178.510,204.061 178.432,204.068 178.800 M214.456 179.600 C 214.456 179.930,214.611 180.560,214.800 181.000 C 215.017 181.504,215.144 181.578,215.144 181.200 C 215.144 180.870,214.989 180.240,214.800 179.800 C 214.583 179.296,214.456 179.222,214.456 179.600 M205.081 183.600 C 205.206 184.810,205.374 185.875,205.454 185.967 C 205.735 186.287,205.517 183.391,205.187 182.400 C 204.971 181.754,204.934 182.180,205.081 183.600 M215.295 183.200 C 215.295 183.750,215.432 184.740,215.600 185.400 C 215.872 186.470,215.905 186.492,215.905 185.600 C 215.905 185.050,215.768 184.060,215.600 183.400 C 215.328 182.330,215.295 182.308,215.295 183.200 M253.600 187.686 C 251.544 190.238,250.806 188.998,260.569 199.399 C 266.151 205.347,270.920 210.443,271.919 211.531 C 272.205 211.841,272.497 212.029,272.568 211.948 C 272.640 211.866,268.132 206.940,262.551 201.000 C 256.970 195.060,252.403 190.066,252.402 189.901 C 252.401 189.737,253.051 188.882,253.847 188.001 C 254.642 187.121,255.137 186.410,254.947 186.422 C 254.756 186.434,254.150 187.003,253.600 187.686 M205.759 193.000 C 205.755 198.748,205.788 199.059,206.080 196.057 C 206.259 194.218,206.261 191.338,206.084 189.657 C 205.808 187.026,205.762 187.492,205.759 193.000 M216.160 193.400 C 216.161 196.700,216.222 197.997,216.298 196.282 C 216.373 194.567,216.372 191.867,216.297 190.282 C 216.221 188.697,216.159 190.100,216.160 193.400 M205.260 201.250 C 205.227 201.828,205.111 202.908,205.001 203.650 L 204.803 205.000 205.224 203.657 C 205.455 202.919,205.572 201.839,205.482 201.257 L 205.320 200.200 205.260 201.250 M215.418 202.218 C 215.265 203.239,215.222 204.155,215.322 204.255 C 215.422 204.355,215.629 203.602,215.782 202.582 C 215.935 201.561,215.978 200.645,215.878 200.545 C 215.778 200.445,215.571 201.198,215.418 202.218 M253.200 205.035 C 253.200 206.046,294.631 249.102,295.127 248.607 C 295.213 248.520,294.590 247.863,293.742 247.147 C 291.888 245.581,284.944 238.632,280.797 234.192 C 279.149 232.428,276.368 229.458,274.617 227.592 C 272.866 225.727,270.166 222.847,268.617 221.192 C 256.532 208.290,253.200 204.798,253.200 205.035 M204.454 205.867 C 204.425 206.344,204.296 207.064,204.170 207.467 C 203.952 208.161,203.964 208.162,204.396 207.488 C 204.647 207.097,204.775 206.377,204.681 205.888 C 204.509 205.001,204.509 205.001,204.454 205.867 M214.673 205.753 C 214.523 206.145,214.411 206.766,214.425 207.133 C 214.442 207.575,214.581 207.474,214.837 206.834 C 215.049 206.303,215.161 205.682,215.085 205.454 C 215.009 205.227,214.824 205.361,214.673 205.753 M213.829 209.029 C 213.681 209.615,213.638 210.172,213.732 210.266 C 213.827 210.360,214.024 209.958,214.171 209.371 C 214.319 208.785,214.362 208.228,214.268 208.134 C 214.173 208.040,213.976 208.442,213.829 209.029 M203.328 209.873 C 202.398 212.877,202.389 212.977,203.204 211.226 C 203.658 210.250,203.978 209.203,203.915 208.899 C 203.852 208.596,203.587 209.034,203.328 209.873 M278.054 217.994 C 280.995 221.181,283.634 224.037,283.919 224.342 C 284.205 224.646,284.504 224.829,284.584 224.748 C 284.664 224.666,282.025 221.810,278.719 218.400 L 272.709 212.200 278.054 217.994 M211.999 213.803 C 211.789 214.354,211.339 215.344,210.999 216.003 C 210.658 216.661,210.469 217.200,210.579 217.200 C 210.809 217.200,211.837 215.280,212.399 213.803 C 212.609 213.251,212.690 212.800,212.580 212.800 C 212.470 212.800,212.209 213.251,211.999 213.803 M208.637 219.900 C 207.825 221.165,207.579 221.708,208.090 221.106 C 209.100 219.918,210.547 217.600,210.279 217.600 C 210.188 217.600,209.449 218.635,208.637 219.900 M195.410 223.474 C 193.875 225.157,191.535 227.331,190.210 228.305 C 187.368 230.393,187.055 230.685,188.400 229.996 C 190.596 228.870,195.818 224.082,197.667 221.500 C 198.932 219.734,198.384 220.212,195.410 223.474 M203.400 226.077 C 200.938 228.584,200.453 229.204,201.866 228.038 C 203.590 226.615,207.535 222.388,207.124 222.405 C 207.056 222.408,205.380 224.060,203.400 226.077 M287.400 227.969 C 291.676 232.684,296.400 237.580,296.389 237.287 C 296.383 237.129,293.818 234.373,290.689 231.161 C 287.560 227.950,286.080 226.514,287.400 227.969 M196.890 231.366 C 193.827 233.466,193.265 234.021,195.400 232.840 C 196.890 232.016,200.047 229.606,199.600 229.634 C 199.490 229.641,198.271 230.420,196.890 231.366 M229.062 231.992 C 228.729 233.653,226.150 236.309,224.200 236.999 C 223.320 237.310,222.924 237.573,223.320 237.582 C 225.666 237.640,230.741 232.208,229.501 230.967 C 229.393 230.860,229.196 231.321,229.062 231.992 M177.400 234.000 C 176.311 234.277,176.293 234.307,177.200 234.325 C 177.750 234.335,178.560 234.189,179.000 234.000 C 179.986 233.576,179.066 233.576,177.400 234.000 M192.093 234.180 C 190.839 234.872,190.462 235.301,191.412 234.955 C 192.398 234.595,193.914 233.586,193.389 233.639 C 193.175 233.661,192.592 233.904,192.093 234.180 M241.287 235.405 C 242.104 236.260,242.838 236.879,242.917 236.780 C 242.997 236.681,242.328 235.981,241.431 235.225 L 239.800 233.850 241.287 235.405 M128.000 237.200 C 127.176 237.464,127.141 237.526,127.800 237.554 C 128.240 237.573,128.870 237.413,129.200 237.200 C 129.901 236.747,129.414 236.747,128.000 237.200 M243.941 237.301 C 244.143 237.503,244.733 237.601,245.254 237.519 C 246.055 237.393,245.998 237.337,244.887 237.152 C 244.093 237.021,243.719 237.079,243.941 237.301 M124.129 238.240 C 123.643 239.507,125.252 239.587,149.400 239.497 L 173.800 239.406 149.600 239.304 C 124.339 239.196,123.986 239.180,124.804 238.195 C 125.162 237.764,125.171 237.600,124.836 237.600 C 124.583 237.600,124.264 237.888,124.129 238.240 M181.000 238.000 L 180.200 238.344 181.000 238.332 C 181.440 238.326,182.250 238.176,182.800 238.000 L 183.800 237.680 182.800 237.668 C 182.250 237.662,181.440 237.811,181.000 238.000 M219.752 238.181 C 219.629 238.500,219.646 238.950,219.788 239.181 C 220.090 239.669,248.238 239.786,248.538 239.300 C 248.641 239.135,242.239 239.049,234.313 239.110 C 220.013 239.219,219.903 239.214,220.113 238.410 C 220.356 237.481,220.086 237.310,219.752 238.181 M298.383 239.700 C 299.364 240.745,300.219 241.600,300.283 241.600 C 300.584 241.600,300.266 241.241,298.500 239.583 L 296.600 237.800 298.383 239.700 M176.200 238.800 C 174.434 239.249,176.445 239.269,178.600 238.823 L 180.200 238.492 178.800 238.493 C 178.030 238.494,176.860 238.632,176.200 238.800 M300.814 241.849 C 300.832 242.303,306.227 246.684,310.003 249.311 C 312.958 251.366,321.707 256.017,322.549 255.981 C 322.797 255.970,321.380 255.191,319.400 254.251 C 313.419 251.410,306.908 247.097,302.500 243.056 C 301.565 242.199,300.806 241.656,300.814 241.849 M295.740 249.103 C 295.896 249.356,296.591 249.967,297.284 250.460 C 297.977 250.954,298.417 251.150,298.260 250.897 C 298.104 250.644,297.409 250.033,296.716 249.540 C 296.023 249.046,295.583 248.850,295.740 249.103 M137.385 252.117 C 137.259 252.621,137.210 254.106,137.278 255.417 L 137.400 257.800 138.903 257.842 L 140.407 257.884 138.986 257.717 L 137.566 257.550 137.683 254.707 C 137.752 253.033,137.987 251.802,138.255 251.714 C 138.579 251.607,138.650 252.322,138.501 254.182 L 138.290 256.800 139.401 256.800 C 141.590 256.800,142.330 254.233,140.546 252.829 C 139.595 252.081,139.570 252.000,140.297 252.000 C 140.740 252.000,141.385 252.405,141.730 252.900 C 142.076 253.395,142.367 253.588,142.379 253.329 C 142.458 251.548,137.811 250.420,137.385 252.117 M149.280 251.680 C 148.653 252.307,148.653 256.893,149.280 257.520 C 149.544 257.784,150.579 257.972,151.580 257.937 L 153.400 257.874 151.424 257.637 L 149.448 257.400 149.556 254.810 C 149.668 252.123,149.805 251.600,150.398 251.600 C 150.592 251.600,150.647 252.230,150.523 253.000 C 150.303 254.355,150.336 254.400,151.571 254.400 C 152.320 254.400,152.745 254.565,152.600 254.800 C 152.464 255.020,152.648 255.200,153.010 255.200 C 154.200 255.200,153.366 254.203,152.069 254.075 C 150.371 253.907,150.392 252.890,152.097 252.725 C 152.951 252.643,153.439 252.361,153.526 251.900 C 153.687 251.052,150.094 250.866,149.280 251.680 M160.480 251.680 C 159.853 252.307,159.853 256.893,160.480 257.520 C 160.744 257.784,161.779 257.972,162.780 257.937 L 164.600 257.874 162.624 257.637 L 160.648 257.400 160.756 254.810 C 160.868 252.123,161.005 251.600,161.598 251.600 C 161.792 251.600,161.847 252.230,161.723 253.000 C 161.503 254.355,161.536 254.400,162.771 254.400 C 163.520 254.400,163.945 254.565,163.800 254.800 C 163.664 255.020,163.848 255.200,164.210 255.200 C 165.400 255.200,164.566 254.203,163.269 254.075 C 161.571 253.907,161.592 252.890,163.297 252.725 C 164.151 252.643,164.639 252.361,164.726 251.900 C 164.887 251.052,161.294 250.866,160.480 251.680 M171.629 251.765 C 170.788 252.778,171.244 257.367,172.200 257.517 C 172.809 257.613,172.868 257.553,172.447 257.265 C 171.877 256.876,171.680 252.841,172.191 252.015 C 172.635 251.295,173.265 251.565,173.011 252.367 C 172.814 252.987,172.922 253.093,173.579 252.921 C 174.026 252.805,174.276 252.523,174.136 252.297 C 173.973 252.032,174.296 251.963,175.033 252.104 C 176.103 252.309,176.130 252.285,175.416 251.762 C 174.424 251.037,172.232 251.038,171.629 251.765 M184.158 251.668 C 183.962 251.984,184.088 252.052,184.547 251.876 C 185.038 251.687,185.336 251.906,185.624 252.663 C 185.843 253.239,186.114 253.619,186.226 253.507 C 186.338 253.395,186.214 252.830,185.951 252.252 C 185.446 251.144,184.644 250.882,184.158 251.668 M196.800 252.200 C 195.665 253.408,195.200 253.467,195.200 252.400 C 195.200 251.867,194.933 251.600,194.400 251.600 C 193.671 251.600,193.600 251.867,193.600 254.600 C 193.600 257.333,193.671 257.600,194.400 257.600 C 194.987 257.600,195.200 257.333,195.200 256.600 C 195.200 255.313,195.730 255.331,196.771 256.654 C 197.227 257.234,197.596 257.549,197.591 257.354 C 197.547 255.581,194.800 254.630,194.800 256.387 C 194.800 256.834,194.620 257.200,194.400 257.200 C 194.178 257.200,194.000 256.133,194.000 254.800 C 194.000 253.467,194.178 252.400,194.400 252.400 C 194.620 252.400,194.800 252.670,194.800 253.000 C 194.800 253.849,195.746 253.744,196.600 252.800 C 196.998 252.360,197.504 252.000,197.724 252.000 C 197.944 252.000,197.826 252.329,197.462 252.731 C 196.530 253.761,196.636 254.273,197.600 253.400 C 198.391 252.684,198.708 251.200,198.070 251.200 C 197.888 251.200,197.317 251.650,196.800 252.200 M208.000 252.200 C 206.865 253.408,206.400 253.467,206.400 252.400 C 206.400 251.867,206.133 251.600,205.600 251.600 C 204.871 251.600,204.800 251.867,204.800 254.600 C 204.800 257.333,204.871 257.600,205.600 257.600 C 206.187 257.600,206.400 257.333,206.400 256.600 C 206.400 255.313,206.930 255.331,207.971 256.654 C 208.427 257.234,208.796 257.549,208.791 257.354 C 208.747 255.581,206.000 254.630,206.000 256.387 C 206.000 256.834,205.820 257.200,205.600 257.200 C 205.378 257.200,205.200 256.133,205.200 254.800 C 205.200 253.467,205.378 252.400,205.600 252.400 C 205.820 252.400,206.000 252.670,206.000 253.000 C 206.000 253.849,206.946 253.744,207.800 252.800 C 208.198 252.360,208.704 252.000,208.924 252.000 C 209.144 252.000,209.026 252.329,208.662 252.731 C 207.730 253.761,207.836 254.273,208.800 253.400 C 209.591 252.684,209.908 251.200,209.270 251.200 C 209.088 251.200,208.517 251.650,208.000 252.200 M216.643 251.833 C 215.516 254.769,216.734 258.000,218.967 258.000 C 220.935 258.000,221.600 256.999,221.600 254.039 C 221.600 250.395,220.298 250.594,220.000 254.284 C 219.755 257.314,220.458 256.982,220.834 253.890 L 221.087 251.800 221.144 253.926 C 221.231 257.220,219.123 258.963,217.280 257.120 C 216.702 256.542,216.631 252.000,217.200 252.000 C 217.420 252.000,217.600 251.820,217.600 251.600 C 217.600 250.967,216.911 251.135,216.643 251.833 M228.200 251.600 C 228.064 251.820,228.334 252.000,228.800 252.000 C 229.266 252.000,229.536 251.820,229.400 251.600 C 229.264 251.380,228.994 251.200,228.800 251.200 C 228.606 251.200,228.336 251.380,228.200 251.600 M232.392 251.810 C 232.114 252.145,231.997 252.531,232.134 252.667 C 232.270 252.803,232.495 252.619,232.633 252.257 C 233.183 250.826,233.600 251.737,233.600 254.367 C 233.600 256.193,233.430 257.210,233.100 257.360 C 232.825 257.484,232.960 257.542,233.400 257.489 C 234.079 257.407,234.218 257.046,234.320 255.107 C 234.487 251.913,233.586 250.371,232.392 251.810 M242.014 251.974 C 241.378 253.163,241.523 253.488,242.236 252.470 C 242.741 251.750,242.989 251.659,243.436 252.030 C 243.777 252.313,244.000 252.337,244.000 252.092 C 244.000 251.752,243.123 251.200,242.581 251.200 C 242.497 251.200,242.242 251.548,242.014 251.974 M254.792 251.605 C 254.019 252.082,254.417 252.366,255.373 252.019 C 255.799 251.864,255.970 251.629,255.754 251.495 C 255.538 251.362,255.106 251.411,254.792 251.605 M258.100 251.483 C 257.456 251.719,257.445 252.432,258.087 252.300 C 258.406 252.235,258.552 252.684,258.508 253.600 L 258.442 255.000 258.868 253.467 C 259.303 251.905,259.011 251.149,258.100 251.483 M266.651 252.100 C 265.836 253.392,265.403 254.969,265.957 254.626 C 266.201 254.476,266.400 254.038,266.400 253.653 C 266.400 252.168,267.466 251.289,268.163 252.200 C 268.499 252.640,268.780 252.811,268.787 252.580 C 268.828 251.230,267.401 250.910,266.651 252.100 M276.000 251.837 C 276.000 252.188,276.360 252.569,276.800 252.684 C 277.486 252.863,277.600 253.230,277.600 255.247 C 277.600 257.430,277.665 257.598,278.500 257.568 C 278.995 257.551,279.175 257.446,278.900 257.335 C 278.598 257.213,278.400 256.376,278.400 255.216 C 278.400 254.005,278.180 253.116,277.804 252.804 C 277.017 252.150,277.404 251.600,278.651 251.600 C 279.457 251.600,279.606 251.750,279.411 252.367 C 279.213 252.988,279.322 253.093,279.984 252.920 C 281.999 252.393,280.900 251.200,278.400 251.200 C 276.471 251.200,276.000 251.325,276.000 251.837 M299.694 252.090 C 300.882 253.100,303.200 254.547,303.200 254.279 C 303.200 254.188,302.165 253.449,300.900 252.637 C 299.635 251.825,299.092 251.579,299.694 252.090 M251.487 251.900 C 251.398 252.065,251.460 252.650,251.623 253.200 L 251.920 254.200 251.960 253.133 C 251.982 252.547,252.225 251.976,252.500 251.865 C 252.808 251.741,252.740 251.651,252.324 251.632 C 251.952 251.614,251.575 251.735,251.487 251.900 M183.654 252.667 C 183.625 252.924,183.479 253.449,183.332 253.833 C 183.149 254.309,183.213 254.439,183.532 254.242 C 183.813 254.068,184.000 254.202,184.000 254.576 C 184.000 254.933,184.342 255.200,184.800 255.200 C 185.342 255.200,185.600 254.933,185.600 254.373 C 185.600 253.739,185.420 253.603,184.830 253.790 C 184.247 253.975,184.018 253.812,183.885 253.117 C 183.788 252.613,183.684 252.410,183.654 252.667 M217.646 254.500 C 217.621 255.765,217.740 256.800,217.911 256.800 C 218.081 256.800,218.162 256.035,218.089 255.100 C 217.872 252.298,217.696 252.059,217.646 254.500 M252.854 253.500 C 252.810 254.551,252.953 254.800,253.600 254.800 C 254.155 254.800,254.408 255.075,254.425 255.700 C 254.450 256.575,254.462 256.572,254.867 255.600 C 255.264 254.647,255.300 254.638,255.614 255.400 C 255.901 256.097,255.947 256.055,255.972 255.076 C 255.988 254.435,256.172 254.059,256.400 254.200 C 256.873 254.492,256.873 254.101,256.400 253.000 C 256.066 252.222,256.055 252.224,256.028 253.057 C 256.013 253.529,255.715 254.024,255.367 254.157 C 254.444 254.512,254.404 254.486,254.354 253.500 C 254.319 252.823,254.262 252.773,254.124 253.300 C 253.868 254.283,253.289 254.171,253.082 253.100 C 252.957 252.449,252.894 252.560,252.854 253.500 M140.827 253.651 C 141.433 254.783,140.716 256.400,139.609 256.400 C 138.917 256.400,138.800 256.140,138.800 254.600 C 138.800 252.567,139.957 252.025,140.827 253.651 M174.800 253.307 C 174.800 253.698,174.372 254.012,173.700 254.113 L 172.600 254.280 173.713 254.340 C 174.773 254.397,175.624 253.491,175.049 252.916 C 174.912 252.779,174.800 252.955,174.800 253.307 M244.039 253.000 C 244.000 253.582,244.996 256.332,245.376 256.693 C 245.554 256.862,245.565 256.550,245.400 256.000 C 244.946 254.481,244.069 252.548,244.039 253.000 M231.499 253.986 C 231.351 254.528,231.376 255.068,231.555 255.186 C 231.734 255.304,231.976 255.670,232.093 256.000 C 232.268 256.491,232.362 256.465,232.612 255.860 C 232.784 255.441,232.737 255.006,232.505 254.860 C 232.278 254.717,232.019 254.240,231.930 253.800 C 231.785 253.084,231.739 253.104,231.499 253.986 M242.400 254.200 C 242.400 254.822,242.627 255.200,243.000 255.200 C 243.330 255.200,243.600 255.009,243.600 254.776 C 243.600 254.543,243.401 254.476,243.157 254.626 C 242.859 254.811,242.803 254.622,242.984 254.050 C 243.144 253.546,243.080 253.200,242.827 253.200 C 242.592 253.200,242.400 253.650,242.400 254.200 M257.108 253.983 C 256.831 254.967,256.997 255.537,257.432 255.101 C 257.560 254.973,257.601 254.448,257.524 253.934 L 257.384 253.000 257.108 253.983 M267.416 254.050 C 267.597 254.622,267.541 254.811,267.243 254.626 C 266.999 254.476,266.800 254.543,266.800 254.776 C 266.800 255.009,267.070 255.200,267.400 255.200 C 267.773 255.200,268.000 254.822,268.000 254.200 C 268.000 253.650,267.808 253.200,267.573 253.200 C 267.320 253.200,267.256 253.546,267.416 254.050 M268.828 253.876 C 268.813 254.358,268.980 254.864,269.200 255.000 C 269.673 255.292,269.673 254.901,269.200 253.800 C 268.869 253.029,268.855 253.031,268.828 253.876 M240.645 255.450 C 239.850 257.784,239.828 257.601,240.900 257.594 C 241.611 257.589,241.676 257.510,241.212 257.216 C 240.710 256.898,240.700 256.631,241.148 255.392 C 241.437 254.593,241.587 253.854,241.482 253.748 C 241.376 253.643,241.000 254.408,240.645 255.450 M229.100 254.231 C 228.935 254.397,228.800 255.118,228.800 255.833 C 228.800 256.548,228.575 257.224,228.300 257.335 C 228.001 257.456,228.082 257.550,228.500 257.568 C 228.885 257.586,229.200 257.330,229.200 257.000 C 229.200 256.273,229.854 256.204,230.135 256.900 C 230.261 257.212,230.349 257.149,230.368 256.733 C 230.386 256.367,230.609 255.997,230.864 255.912 C 231.211 255.796,231.214 255.562,230.876 254.979 C 230.451 254.246,230.424 254.258,230.412 255.180 C 230.399 256.260,229.770 255.888,229.539 254.664 C 229.462 254.259,229.265 254.064,229.100 254.231 M196.800 254.544 C 196.800 254.708,197.250 255.505,197.800 256.314 C 198.350 257.123,198.800 257.599,198.800 257.371 C 198.800 257.142,198.350 256.345,197.800 255.600 C 197.250 254.855,196.800 254.379,196.800 254.544 M208.000 254.544 C 208.000 254.708,208.450 255.505,209.000 256.314 C 209.550 257.123,210.000 257.599,210.000 257.371 C 210.000 257.142,209.550 256.345,209.000 255.600 C 208.450 254.855,208.000 254.379,208.000 254.544 M252.195 255.600 C 252.354 256.370,252.631 257.157,252.811 257.349 C 252.991 257.541,252.988 257.032,252.804 256.217 C 252.375 254.315,251.813 253.744,252.195 255.600 M303.600 254.579 C 303.600 254.689,304.140 255.059,304.800 255.400 C 305.460 255.741,306.000 255.931,306.000 255.821 C 306.000 255.711,305.460 255.341,304.800 255.000 C 304.140 254.659,303.600 254.469,303.600 254.579 M257.892 255.442 C 257.731 255.602,257.605 256.108,257.612 256.567 C 257.623 257.336,257.656 257.345,258.040 256.685 C 258.488 255.916,258.373 254.960,257.892 255.442 M265.052 256.100 C 264.686 257.466,264.735 257.600,265.600 257.600 C 266.040 257.600,266.400 257.426,266.400 257.213 C 266.400 256.999,266.153 256.920,265.851 257.036 C 265.447 257.191,265.354 256.976,265.498 256.223 C 265.739 254.961,265.384 254.863,265.052 256.100 M141.445 256.588 C 141.080 257.144,140.922 257.600,141.095 257.600 C 141.484 257.600,142.519 255.986,142.282 255.749 C 142.186 255.653,141.810 256.031,141.445 256.588 M269.749 256.279 C 269.857 256.854,269.687 257.218,269.257 257.333 C 268.814 257.450,268.893 257.522,269.500 257.554 C 270.477 257.604,270.542 257.416,269.964 256.200 C 269.604 255.444,269.593 255.448,269.749 256.279 M183.700 256.256 C 183.425 256.372,183.205 256.767,183.212 257.133 C 183.223 257.735,183.264 257.732,183.632 257.100 C 184.073 256.343,185.805 256.142,186.137 256.810 C 186.249 257.036,186.295 256.990,186.239 256.710 C 186.134 256.176,184.559 255.895,183.700 256.256 M241.600 256.345 C 241.600 256.534,242.059 256.601,242.619 256.494 C 243.307 256.363,243.834 256.543,244.241 257.050 C 244.809 257.756,244.819 257.747,244.408 256.900 C 243.978 256.012,241.600 255.542,241.600 256.345 M266.400 256.155 C 266.400 256.240,266.940 256.388,267.600 256.485 C 268.260 256.582,268.800 256.513,268.800 256.331 C 268.800 256.149,268.260 256.000,267.600 256.000 C 266.940 256.000,266.400 256.070,266.400 256.155 M151.105 256.683 C 151.602 256.779,152.322 256.775,152.705 256.675 C 153.087 256.575,152.680 256.496,151.800 256.501 C 150.920 256.505,150.607 256.587,151.105 256.683 M162.305 256.683 C 162.802 256.779,163.522 256.775,163.905 256.675 C 164.287 256.575,163.880 256.496,163.000 256.501 C 162.120 256.505,161.807 256.587,162.305 256.683 M309.338 257.647 C 310.184 258.093,310.968 258.365,311.081 258.252 C 311.276 258.057,308.580 256.780,308.051 256.818 C 307.913 256.827,308.492 257.200,309.338 257.647 M326.400 257.182 C 326.730 257.405,327.345 257.591,327.767 257.594 C 328.790 257.602,328.471 257.373,327.000 257.044 C 326.124 256.848,325.962 256.885,326.400 257.182 M329.600 257.980 C 330.599 258.320,333.082 258.532,332.767 258.251 C 332.675 258.169,331.700 257.999,330.600 257.872 C 329.251 257.716,328.926 257.751,329.600 257.980 M335.600 258.695 C 337.831 258.888,338.489 259.441,337.424 260.227 C 336.996 260.542,336.839 260.800,337.075 260.800 C 337.310 260.800,337.726 260.530,338.000 260.200 C 338.855 259.170,337.795 258.389,335.651 258.470 L 333.800 258.540 335.600 258.695 M314.400 259.600 C 314.730 259.813,315.270 259.988,315.600 259.988 C 316.133 259.988,316.133 259.945,315.600 259.600 C 315.270 259.387,314.730 259.212,314.400 259.212 C 313.867 259.212,313.867 259.255,314.400 259.600 M317.200 260.400 C 318.568 260.838,319.619 260.838,318.600 260.400 C 318.160 260.211,317.440 260.062,317.000 260.068 C 316.357 260.077,316.396 260.143,317.200 260.400 M321.000 261.200 C 321.660 261.368,322.830 261.506,323.600 261.507 L 325.000 261.508 323.400 261.177 C 321.245 260.731,319.234 260.751,321.000 261.200 M332.200 261.200 C 330.839 261.444,330.779 261.492,331.800 261.520 C 332.460 261.539,333.720 261.405,334.600 261.223 C 336.693 260.790,334.602 260.770,332.200 261.200 " stroke="none" fill="#9c9c9c" fill-rule="evenodd"></path><path id="path3" d="M138.905 147.087 C 139.514 147.179,140.414 147.177,140.905 147.082 C 141.397 146.987,140.900 146.911,139.800 146.914 C 138.700 146.917,138.297 146.995,138.905 147.087 M150.100 147.091 C 150.925 147.178,152.275 147.178,153.100 147.091 C 153.925 147.005,153.250 146.934,151.600 146.934 C 149.950 146.934,149.275 147.005,150.100 147.091 M206.093 196.000 C 206.093 196.770,206.175 197.085,206.276 196.700 C 206.376 196.315,206.376 195.685,206.276 195.300 C 206.175 194.915,206.093 195.230,206.093 196.000 M277.428 251.955 C 277.307 252.150,277.481 252.535,277.814 252.811 C 278.323 253.234,278.375 253.199,278.142 252.592 C 277.915 252.002,278.022 251.912,278.733 252.098 C 279.210 252.223,279.600 252.162,279.600 251.963 C 279.600 251.495,277.716 251.488,277.428 251.955 M220.800 253.626 C 220.800 254.521,220.616 255.597,220.391 256.017 C 220.061 256.634,220.099 256.737,220.591 256.548 C 221.162 256.329,221.552 252.000,221.000 252.000 C 220.890 252.000,220.800 252.732,220.800 253.626 M194.000 253.363 C 194.000 254.161,194.152 254.285,194.890 254.092 C 195.379 253.964,195.559 253.786,195.290 253.697 C 195.020 253.607,194.800 253.278,194.800 252.967 C 194.800 252.655,194.620 252.400,194.400 252.400 C 194.180 252.400,194.000 252.833,194.000 253.363 M205.200 253.363 C 205.200 254.161,205.352 254.285,206.090 254.092 C 206.579 253.964,206.759 253.786,206.490 253.697 C 206.220 253.607,206.000 253.278,206.000 252.967 C 206.000 252.655,205.820 252.400,205.600 252.400 C 205.380 252.400,205.200 252.833,205.200 253.363 M278.924 255.000 C 278.926 256.320,279.001 256.812,279.090 256.093 C 279.179 255.374,279.177 254.294,279.086 253.693 C 278.995 253.092,278.922 253.680,278.924 255.000 M184.176 253.822 C 183.412 254.434,183.413 254.438,184.200 254.076 C 184.640 253.874,185.270 253.608,185.600 253.486 C 186.118 253.293,186.115 253.259,185.576 253.232 C 185.234 253.214,184.604 253.480,184.176 253.822 M150.800 254.800 C 150.800 255.020,151.149 255.200,151.576 255.200 C 152.003 255.200,152.464 255.020,152.600 254.800 C 152.740 254.573,152.404 254.400,151.824 254.400 C 151.261 254.400,150.800 254.580,150.800 254.800 M162.000 254.800 C 162.000 255.020,162.349 255.200,162.776 255.200 C 163.203 255.200,163.664 255.020,163.800 254.800 C 163.940 254.573,163.604 254.400,163.024 254.400 C 162.461 254.400,162.000 254.580,162.000 254.800 M194.996 255.207 C 194.858 255.430,194.577 255.509,194.372 255.383 C 194.168 255.256,194.000 255.613,194.000 256.176 C 194.000 256.739,194.180 257.200,194.400 257.200 C 194.620 257.200,194.800 256.849,194.800 256.420 C 194.800 255.991,195.115 255.456,195.500 255.232 C 195.885 255.008,195.986 254.819,195.724 254.812 C 195.462 254.805,195.134 254.983,194.996 255.207 M206.196 255.207 C 206.058 255.430,205.777 255.509,205.572 255.383 C 205.368 255.256,205.200 255.613,205.200 256.176 C 205.200 256.739,205.380 257.200,205.600 257.200 C 205.820 257.200,206.000 256.849,206.000 256.420 C 206.000 255.991,206.315 255.456,206.700 255.232 C 207.085 255.008,207.186 254.819,206.924 254.812 C 206.662 254.805,206.334 254.983,206.196 255.207 " stroke="none" fill="#7c7c7c" fill-rule="evenodd"></path><path id="path4" d="M143.300 147.094 C 144.345 147.176,146.055 147.176,147.100 147.094 C 148.145 147.012,147.290 146.944,145.200 146.944 C 143.110 146.944,142.255 147.012,143.300 147.094 M131.305 147.487 C 131.914 147.579,132.814 147.577,133.305 147.482 C 133.797 147.387,133.300 147.311,132.200 147.314 C 131.100 147.317,130.697 147.395,131.305 147.487 M166.912 147.495 C 167.964 147.577,169.584 147.576,170.512 147.492 C 171.440 147.408,170.580 147.341,168.600 147.342 C 166.620 147.343,165.860 147.412,166.912 147.495 M220.074 147.900 C 220.174 148.428,220.624 148.610,221.906 148.639 L 223.606 148.678 222.003 148.516 C 221.121 148.427,220.400 148.184,220.400 147.977 C 220.400 147.748,225.837 147.600,234.224 147.600 C 243.337 147.600,247.963 147.736,247.800 148.000 C 247.664 148.220,246.888 148.425,246.076 148.454 C 245.069 148.492,244.899 148.566,245.541 148.688 C 246.905 148.947,248.400 148.478,248.400 147.792 C 248.400 147.280,246.471 147.200,234.171 147.200 C 220.835 147.200,219.950 147.244,220.074 147.900 M269.600 147.800 C 269.600 148.130,269.915 148.402,270.300 148.405 C 270.685 148.408,271.450 148.495,272.000 148.599 C 272.550 148.702,272.280 148.533,271.400 148.224 C 269.968 147.720,271.205 147.663,283.200 147.676 C 295.288 147.688,296.385 147.743,294.400 148.230 L 292.200 148.770 294.200 148.546 C 295.300 148.423,296.335 148.239,296.500 148.137 C 297.763 147.360,295.495 147.200,283.200 147.200 C 271.378 147.200,269.600 147.278,269.600 147.800 M128.100 147.876 C 128.485 147.976,129.115 147.976,129.500 147.876 C 129.885 147.775,129.570 147.693,128.800 147.693 C 128.030 147.693,127.715 147.775,128.100 147.876 M172.900 147.876 C 173.285 147.976,173.915 147.976,174.300 147.876 C 174.685 147.775,174.370 147.693,173.600 147.693 C 172.830 147.693,172.515 147.775,172.900 147.876 M122.800 148.400 C 121.456 148.831,122.908 148.831,124.600 148.400 C 125.678 148.126,125.698 148.094,124.800 148.087 C 124.250 148.083,123.350 148.224,122.800 148.400 M177.600 148.400 C 178.150 148.576,178.960 148.720,179.400 148.720 C 180.033 148.720,179.992 148.654,179.200 148.400 C 178.650 148.224,177.840 148.080,177.400 148.080 C 176.767 148.080,176.808 148.146,177.600 148.400 M119.000 149.200 C 118.496 149.417,118.422 149.544,118.800 149.544 C 119.130 149.544,119.760 149.389,120.200 149.200 C 120.704 148.983,120.778 148.856,120.400 148.856 C 120.070 148.856,119.440 149.011,119.000 149.200 M180.833 148.944 C 180.925 149.023,181.540 149.208,182.200 149.356 C 183.076 149.552,183.238 149.515,182.800 149.218 C 182.260 148.853,180.432 148.598,180.833 148.944 M240.647 151.201 C 239.851 152.082,239.200 152.928,239.200 153.081 C 239.200 153.235,239.335 153.189,239.501 152.980 C 239.667 152.771,240.422 151.925,241.180 151.100 C 241.937 150.275,242.453 149.600,242.325 149.600 C 242.197 149.600,241.442 150.321,240.647 151.201 M274.582 152.000 C 274.582 153.348,274.651 153.504,274.952 152.830 C 275.179 152.321,275.179 151.679,274.952 151.170 C 274.651 150.496,274.582 150.652,274.582 152.000 M285.360 151.554 C 284.502 152.188,282.900 153.669,281.800 154.844 C 279.991 156.777,280.067 156.733,282.600 154.382 C 284.140 152.952,285.850 151.481,286.400 151.112 C 286.950 150.744,287.292 150.433,287.160 150.421 C 287.028 150.409,286.218 150.919,285.360 151.554 M125.400 151.620 C 124.611 151.835,125.022 151.870,126.600 151.723 C 127.920 151.600,129.075 151.432,129.167 151.350 C 129.464 151.082,126.634 151.285,125.400 151.620 M134.592 191.200 C 134.592 213.310,134.641 222.355,134.700 211.300 C 134.759 200.245,134.759 182.155,134.700 171.100 C 134.641 160.045,134.592 169.090,134.592 191.200 M142.997 193.300 L 143.000 235.400 156.800 235.408 L 170.600 235.416 156.902 235.303 L 143.204 235.190 143.099 193.195 L 142.994 151.200 142.997 193.300 M174.800 151.600 C 175.350 151.776,176.160 151.920,176.600 151.920 C 177.233 151.920,177.192 151.854,176.400 151.600 C 175.850 151.424,175.040 151.280,174.600 151.280 C 173.967 151.280,174.008 151.346,174.800 151.600 M109.985 153.229 L 108.600 154.458 110.200 153.345 C 111.080 152.733,111.875 152.180,111.967 152.116 C 112.058 152.052,111.962 152.000,111.752 152.000 C 111.542 152.000,110.747 152.553,109.985 153.229 M120.600 152.400 C 119.581 152.838,120.632 152.838,122.000 152.400 C 122.804 152.143,122.843 152.077,122.200 152.068 C 121.760 152.062,121.040 152.211,120.600 152.400 M192.400 152.979 C 192.400 153.089,192.940 153.459,193.600 153.800 C 194.260 154.141,194.800 154.331,194.800 154.221 C 194.800 154.111,194.260 153.741,193.600 153.400 C 192.940 153.059,192.400 152.869,192.400 152.979 M229.800 193.200 C 229.800 214.524,229.922 231.662,230.072 231.285 C 230.221 230.908,230.344 213.770,230.344 193.200 C 230.344 172.630,230.221 155.492,230.072 155.115 C 229.922 154.738,229.800 171.876,229.800 193.200 M186.800 155.350 C 186.800 155.444,187.441 155.899,188.224 156.361 C 189.007 156.823,189.536 157.020,189.399 156.798 C 189.131 156.364,186.800 155.066,186.800 155.350 M197.200 155.711 C 197.200 155.787,197.785 156.278,198.500 156.801 C 199.304 157.390,199.584 157.487,199.233 157.055 C 198.700 156.399,197.200 155.407,197.200 155.711 M190.000 157.346 C 190.000 157.456,190.540 157.930,191.200 158.400 C 191.860 158.870,192.400 159.164,192.400 159.054 C 192.400 158.944,191.860 158.470,191.200 158.000 C 190.540 157.530,190.000 157.236,190.000 157.346 M277.188 160.014 C 275.816 161.561,274.763 162.882,274.847 162.949 C 274.931 163.017,276.137 161.750,277.527 160.136 C 278.917 158.521,279.970 157.200,279.868 157.200 C 279.766 157.200,278.560 158.466,277.188 160.014 M107.171 159.500 C 105.362 161.410,103.290 163.920,104.446 162.800 C 105.760 161.528,109.307 157.600,109.143 157.600 C 109.048 157.600,108.160 158.455,107.171 159.500 M200.000 157.725 C 200.000 157.794,200.585 158.379,201.300 159.025 L 202.600 160.200 201.425 158.900 C 200.330 157.688,200.000 157.416,200.000 157.725 M266.180 164.100 C 264.032 166.795,262.088 169.270,261.859 169.600 C 260.742 171.213,262.938 168.671,266.005 164.800 C 267.835 162.490,269.601 160.285,269.928 159.900 C 270.256 159.515,270.425 159.200,270.305 159.200 C 270.184 159.200,268.328 161.405,266.180 164.100 M103.000 161.200 C 102.659 161.860,102.469 162.400,102.579 162.400 C 102.689 162.400,103.059 161.860,103.400 161.200 C 103.741 160.540,103.931 160.000,103.821 160.000 C 103.711 160.000,103.341 160.540,103.000 161.200 M193.600 160.125 C 193.600 160.194,194.185 160.779,194.900 161.425 L 196.200 162.600 195.025 161.300 C 193.930 160.088,193.600 159.816,193.600 160.125 M204.000 161.725 C 204.000 161.794,204.573 162.379,205.274 163.025 L 206.549 164.200 205.574 162.922 C 204.747 161.837,204.000 161.269,204.000 161.725 M197.183 164.300 C 197.926 165.235,198.606 166.000,198.694 166.000 C 198.977 166.000,197.263 163.749,196.535 163.164 C 196.148 162.854,196.440 163.365,197.183 164.300 M102.652 165.265 C 102.053 166.180,101.853 166.688,102.208 166.394 C 102.812 165.892,104.185 163.600,103.881 163.600 C 103.805 163.600,103.252 164.349,102.652 165.265 M272.975 164.900 L 271.800 166.200 273.100 165.025 C 273.815 164.379,274.400 163.794,274.400 163.725 C 274.400 163.416,274.070 163.688,272.975 164.900 M207.375 165.732 C 207.991 166.539,208.576 167.200,208.675 167.200 C 208.953 167.200,207.221 164.860,206.709 164.544 C 206.459 164.389,206.759 164.924,207.375 165.732 M270.575 167.700 L 269.400 169.000 270.700 167.825 C 271.415 167.179,272.000 166.594,272.000 166.525 C 272.000 166.216,271.670 166.488,270.575 167.700 M199.800 168.000 C 200.141 168.660,200.511 169.200,200.621 169.200 C 200.731 169.200,200.541 168.660,200.200 168.000 C 199.859 167.340,199.489 166.800,199.379 166.800 C 199.269 166.800,199.459 167.340,199.800 168.000 M268.175 170.500 L 267.000 171.800 268.300 170.625 C 269.015 169.979,269.600 169.394,269.600 169.325 C 269.600 169.016,269.270 169.288,268.175 170.500 M259.687 172.244 C 258.965 173.210,258.455 174.000,258.554 174.000 C 258.837 174.000,261.313 170.779,261.148 170.626 C 261.067 170.550,260.409 171.278,259.687 172.244 M265.606 173.394 C 264.863 174.161,264.332 174.850,264.427 174.925 C 264.522 175.000,265.206 174.373,265.946 173.531 C 267.629 171.618,267.412 171.531,265.606 173.394 M256.487 176.244 C 255.765 177.210,255.255 178.000,255.354 178.000 C 255.637 178.000,258.113 174.779,257.948 174.626 C 257.867 174.550,257.209 175.278,256.487 176.244 M262.575 176.900 L 261.400 178.200 262.700 177.025 C 263.415 176.379,264.000 175.794,264.000 175.725 C 264.000 175.416,263.670 175.688,262.575 176.900 M253.287 180.244 C 252.565 181.210,252.055 182.000,252.154 182.000 C 252.437 182.000,254.913 178.779,254.748 178.626 C 254.667 178.550,254.009 179.278,253.287 180.244 M260.175 179.700 L 259.000 181.000 260.300 179.825 C 261.015 179.179,261.600 178.594,261.600 178.525 C 261.600 178.216,261.270 178.488,260.175 179.700 M214.468 181.200 C 214.488 182.239,215.118 183.946,215.132 183.000 C 215.138 182.560,214.989 181.840,214.800 181.400 C 214.589 180.910,214.461 180.832,214.468 181.200 M257.775 182.500 L 256.600 183.800 257.900 182.625 C 258.615 181.979,259.200 181.394,259.200 181.325 C 259.200 181.016,258.870 181.288,257.775 182.500 M255.206 185.394 C 254.463 186.161,253.932 186.850,254.027 186.925 C 254.122 187.000,254.806 186.373,255.546 185.531 C 257.229 183.618,257.012 183.531,255.206 185.394 M206.101 187.800 C 206.105 188.680,206.187 188.993,206.283 188.495 C 206.379 187.998,206.375 187.278,206.275 186.895 C 206.175 186.513,206.096 186.920,206.101 187.800 M215.701 188.600 C 215.705 189.480,215.787 189.793,215.883 189.295 C 215.979 188.798,215.975 188.078,215.875 187.695 C 215.775 187.313,215.696 187.720,215.701 188.600 M255.000 194.000 C 256.306 195.320,257.465 196.400,257.575 196.400 C 257.685 196.400,256.706 195.320,255.400 194.000 C 254.094 192.680,252.935 191.600,252.825 191.600 C 252.715 191.600,253.694 192.680,255.000 194.000 M247.000 198.000 C 248.306 199.320,249.465 200.400,249.575 200.400 C 249.685 200.400,248.706 199.320,247.400 198.000 C 246.094 196.680,244.935 195.600,244.825 195.600 C 244.715 195.600,245.694 196.680,247.000 198.000 M215.466 198.768 C 215.319 200.178,215.274 201.407,215.366 201.500 C 215.614 201.747,216.115 197.346,215.910 196.730 C 215.813 196.440,215.614 197.357,215.466 198.768 M205.829 199.629 C 205.676 200.979,205.633 202.166,205.733 202.267 C 205.834 202.367,206.044 201.347,206.200 200.000 C 206.356 198.653,206.399 197.466,206.295 197.362 C 206.191 197.258,205.981 198.278,205.829 199.629 M258.875 197.995 C 259.050 198.479,264.476 204.057,264.626 203.907 C 264.693 203.840,263.398 202.405,261.749 200.717 C 260.099 199.030,258.806 197.805,258.875 197.995 M252.412 203.807 C 254.056 205.571,255.482 206.959,255.582 206.892 C 255.682 206.825,254.337 205.382,252.594 203.685 L 249.425 200.600 252.412 203.807 M205.050 204.850 C 204.717 206.517,205.040 206.840,205.400 205.200 C 205.552 204.509,205.593 203.859,205.491 203.758 C 205.389 203.656,205.191 204.147,205.050 204.850 M267.000 206.800 C 268.306 208.120,269.465 209.200,269.575 209.200 C 269.685 209.200,268.706 208.120,267.400 206.800 C 266.094 205.480,264.935 204.400,264.825 204.400 C 264.715 204.400,265.694 205.480,267.000 206.800 M259.000 210.800 C 260.306 212.120,261.465 213.200,261.575 213.200 C 261.685 213.200,260.706 212.120,259.400 210.800 C 258.094 209.480,256.935 208.400,256.825 208.400 C 256.715 208.400,257.694 209.480,259.000 210.800 M270.800 210.645 C 270.800 210.853,272.015 212.188,273.500 213.612 L 276.200 216.200 273.600 213.410 C 272.170 211.876,270.955 210.541,270.900 210.444 C 270.845 210.346,270.800 210.437,270.800 210.645 M264.412 216.607 C 266.056 218.371,267.482 219.759,267.582 219.692 C 267.682 219.625,266.337 218.182,264.594 216.485 L 261.425 213.400 264.412 216.607 M201.200 216.000 C 200.751 216.880,200.474 217.600,200.584 217.600 C 200.694 217.600,201.151 216.880,201.600 216.000 C 202.049 215.120,202.326 214.400,202.216 214.400 C 202.106 214.400,201.649 215.120,201.200 216.000 M208.303 219.700 C 207.265 221.295,206.917 222.020,207.529 221.310 C 208.565 220.108,210.613 216.800,210.320 216.800 C 210.248 216.800,209.340 218.105,208.303 219.700 M279.000 219.600 C 280.306 220.920,281.465 222.000,281.575 222.000 C 281.685 222.000,280.706 220.920,279.400 219.600 C 278.094 218.280,276.935 217.200,276.825 217.200 C 276.715 217.200,277.694 218.280,279.000 219.600 M197.775 221.468 C 197.159 222.276,196.859 222.811,197.109 222.656 C 197.621 222.340,199.353 220.000,199.075 220.000 C 198.976 220.000,198.391 220.661,197.775 221.468 M271.000 223.600 C 272.306 224.920,273.465 226.000,273.575 226.000 C 273.685 226.000,272.706 224.920,271.400 223.600 C 270.094 222.280,268.935 221.200,268.825 221.200 C 268.715 221.200,269.694 222.280,271.000 223.600 M203.588 225.500 L 201.000 228.200 203.700 225.612 C 206.208 223.207,206.583 222.800,206.288 222.800 C 206.227 222.800,205.012 224.015,203.588 225.500 M194.420 225.379 L 192.640 227.400 194.601 225.514 C 195.679 224.477,196.480 223.567,196.381 223.493 C 196.281 223.419,195.399 224.267,194.420 225.379 M285.000 226.000 C 286.528 227.540,287.869 228.800,287.979 228.800 C 288.089 228.800,286.928 227.540,285.400 226.000 C 283.872 224.460,282.531 223.200,282.421 223.200 C 282.311 223.200,283.472 224.460,285.000 226.000 M276.428 229.507 C 278.062 231.216,279.476 232.565,279.569 232.505 C 279.811 232.349,274.274 226.509,273.828 226.450 C 273.623 226.422,274.793 227.798,276.428 229.507 M198.400 230.049 C 197.006 231.271,197.005 231.272,198.288 230.419 C 198.996 229.948,199.682 229.391,199.812 229.181 C 200.197 228.557,199.877 228.754,198.400 230.049 M290.200 231.600 C 291.506 232.920,292.665 234.000,292.775 234.000 C 292.885 234.000,291.906 232.920,290.600 231.600 C 289.294 230.280,288.135 229.200,288.025 229.200 C 287.915 229.200,288.894 230.280,290.200 231.600 M185.600 231.600 C 184.390 232.239,183.541 232.771,183.713 232.781 C 184.138 232.807,188.000 230.836,188.000 230.593 C 188.000 230.326,188.055 230.303,185.600 231.600 M131.978 235.500 L 130.600 237.000 132.100 235.622 C 133.496 234.338,133.784 234.000,133.478 234.000 C 133.412 234.000,132.737 234.675,131.978 235.500 M283.000 236.400 C 284.306 237.720,285.465 238.800,285.575 238.800 C 285.685 238.800,284.706 237.720,283.400 236.400 C 282.094 235.080,280.935 234.000,280.825 234.000 C 280.715 234.000,281.694 235.080,283.000 236.400 M225.400 236.827 C 224.740 237.250,224.405 237.597,224.656 237.598 C 224.906 237.599,225.536 237.246,226.056 236.813 C 227.245 235.823,226.959 235.829,225.400 236.827 M297.800 239.600 C 299.771 241.580,301.473 243.200,301.583 243.200 C 301.693 243.200,300.171 241.580,298.200 239.600 C 296.229 237.620,294.527 236.000,294.417 236.000 C 294.307 236.000,295.829 237.620,297.800 239.600 M183.000 237.200 C 182.496 237.417,182.422 237.544,182.800 237.544 C 183.130 237.544,183.760 237.389,184.200 237.200 C 184.704 236.983,184.778 236.856,184.400 236.856 C 184.070 236.856,183.440 237.011,183.000 237.200 M246.600 238.149 C 247.809 238.455,248.363 238.750,248.000 238.896 C 247.670 239.028,247.614 239.151,247.876 239.168 C 249.941 239.305,248.623 238.145,246.400 237.868 L 244.600 237.644 246.600 238.149 M220.006 238.700 C 220.010 239.144,220.120 239.234,220.306 238.946 C 220.468 238.697,220.960 238.403,221.400 238.293 C 222.013 238.139,221.943 238.082,221.100 238.046 C 220.299 238.013,220.002 238.190,220.006 238.700 M171.400 238.800 L 168.200 239.053 171.000 239.104 C 172.540 239.131,174.520 239.005,175.400 238.823 C 177.340 238.422,176.259 238.415,171.400 238.800 M288.200 242.000 C 289.728 243.540,291.059 244.800,291.158 244.800 C 291.499 244.800,286.198 239.296,285.811 239.248 C 285.597 239.222,286.672 240.460,288.200 242.000 M291.600 244.925 C 291.600 244.994,292.185 245.579,292.900 246.225 L 294.200 247.400 293.025 246.100 C 291.930 244.888,291.600 244.616,291.600 244.925 M295.469 248.509 C 297.587 250.213,298.205 250.521,296.600 249.073 C 295.720 248.280,294.851 247.623,294.669 247.615 C 294.487 247.607,294.847 248.009,295.469 248.509 M308.894 248.890 C 310.082 249.900,312.400 251.347,312.400 251.079 C 312.400 250.988,311.365 250.249,310.100 249.437 C 308.835 248.625,308.292 248.379,308.894 248.890 M299.400 251.388 C 300.608 252.446,302.000 253.353,302.000 253.082 C 302.000 253.001,301.145 252.351,300.100 251.636 C 298.662 250.652,298.492 250.592,299.400 251.388 M137.600 254.800 L 137.600 257.600 139.120 257.600 C 140.578 257.600,141.600 257.052,141.600 256.271 C 141.600 256.062,141.384 256.074,141.100 256.301 C 140.825 256.520,140.060 256.775,139.400 256.867 L 138.200 257.034 138.334 254.517 C 138.421 252.891,138.315 252.000,138.034 252.000 C 137.763 252.000,137.600 253.053,137.600 254.800 M140.400 252.324 C 140.400 252.539,140.685 252.824,141.033 252.957 C 141.423 253.107,141.606 253.018,141.508 252.725 C 141.309 252.127,140.400 251.798,140.400 252.324 M149.600 254.800 L 149.600 257.600 151.400 257.600 C 152.447 257.600,153.200 257.415,153.200 257.158 C 153.200 256.887,152.608 256.772,151.667 256.862 C 150.088 257.013,149.626 256.414,150.482 255.326 C 150.716 255.028,150.696 254.554,150.429 254.055 C 150.195 253.616,150.111 252.975,150.244 252.629 C 150.377 252.283,150.286 252.000,150.043 252.000 C 149.761 252.000,149.600 253.020,149.600 254.800 M160.800 254.800 L 160.800 257.600 162.600 257.600 C 163.647 257.600,164.400 257.415,164.400 257.158 C 164.400 256.887,163.808 256.772,162.867 256.862 C 161.288 257.013,160.826 256.414,161.682 255.326 C 161.916 255.028,161.896 254.554,161.629 254.055 C 161.395 253.616,161.311 252.975,161.444 252.629 C 161.577 252.283,161.486 252.000,161.243 252.000 C 160.961 252.000,160.800 253.020,160.800 254.800 M172.000 254.667 C 172.000 256.133,172.095 257.238,172.211 257.122 C 172.578 256.755,172.699 252.000,172.341 252.000 C 172.154 252.000,172.000 253.200,172.000 254.667 M174.720 252.480 C 175.658 253.418,175.289 254.400,174.000 254.400 C 173.340 254.400,172.800 254.580,172.800 254.800 C 172.800 255.481,174.639 255.240,175.338 254.469 C 176.174 253.544,176.187 252.557,175.367 252.243 C 174.403 251.873,174.190 251.950,174.720 252.480 M184.138 252.617 C 184.008 252.957,183.988 253.321,184.093 253.427 C 184.450 253.783,185.600 253.119,185.600 252.557 C 185.600 251.800,184.433 251.848,184.138 252.617 M216.800 254.327 C 216.800 255.902,216.993 256.862,217.374 257.178 C 218.092 257.775,220.482 257.573,220.704 256.897 C 220.829 256.515,220.621 256.488,219.838 256.786 C 218.096 257.448,217.600 256.959,217.600 254.581 C 217.600 253.407,217.420 252.336,217.200 252.200 C 216.950 252.046,216.800 252.846,216.800 254.327 M228.267 252.267 C 227.838 252.695,227.960 257.200,228.400 257.200 C 228.620 257.200,228.800 256.491,228.800 255.624 C 228.800 254.757,228.980 253.936,229.200 253.800 C 229.792 253.434,229.686 252.000,229.067 252.000 C 228.773 252.000,228.413 252.120,228.267 252.267 M232.328 252.998 C 231.962 253.802,231.995 254.133,232.500 254.698 C 232.845 255.084,233.209 255.850,233.309 256.400 C 233.409 256.950,233.516 256.354,233.546 255.076 C 233.580 253.617,233.451 252.845,233.200 253.000 C 232.980 253.136,232.800 253.072,232.800 252.857 C 232.800 252.642,233.025 252.376,233.300 252.265 C 233.694 252.106,233.692 252.056,233.291 252.032 C 233.012 252.014,232.578 252.449,232.328 252.998 M242.400 252.424 C 242.400 252.657,242.625 252.718,242.900 252.559 C 243.175 252.401,243.264 252.421,243.099 252.604 C 242.933 252.787,243.074 253.359,243.413 253.875 C 243.954 254.702,243.957 254.842,243.433 255.043 C 242.540 255.385,242.047 254.905,242.301 253.937 C 242.455 253.346,242.380 253.165,242.063 253.361 C 241.808 253.518,241.600 253.986,241.600 254.400 C 241.600 254.814,241.420 255.264,241.200 255.400 C 240.980 255.536,240.806 256.042,240.813 256.524 C 240.825 257.337,240.863 257.350,241.357 256.700 C 241.649 256.315,242.348 256.000,242.911 256.000 C 243.473 256.000,244.009 255.865,244.101 255.700 C 244.193 255.535,244.219 255.612,244.158 255.871 C 244.097 256.130,244.282 256.536,244.569 256.774 C 245.133 257.243,244.992 255.412,244.401 254.600 C 244.241 254.380,243.992 253.705,243.848 253.100 C 243.601 252.066,242.400 251.505,242.400 252.424 M254.667 252.267 C 254.520 252.413,254.400 252.877,254.400 253.296 C 254.400 254.386,255.766 254.028,255.928 252.896 C 256.051 252.033,255.283 251.650,254.667 252.267 M266.885 252.475 C 266.618 252.742,266.406 253.329,266.413 253.780 C 266.425 254.584,266.437 254.585,267.009 253.829 C 267.662 252.966,267.861 253.036,268.062 254.200 C 268.174 254.847,267.976 255.003,267.025 255.015 C 266.084 255.028,265.790 255.252,265.552 256.141 C 265.308 257.056,265.352 257.172,265.804 256.797 C 266.106 256.546,266.303 256.130,266.242 255.871 C 266.181 255.612,266.207 255.535,266.299 255.700 C 266.391 255.865,266.927 256.000,267.489 256.000 C 268.052 256.000,268.751 256.315,269.043 256.700 C 269.826 257.732,269.760 256.654,268.890 254.231 C 268.134 252.122,267.656 251.704,266.885 252.475 M278.297 254.300 C 278.517 257.393,278.730 257.860,278.768 255.333 C 278.786 254.196,278.909 252.981,279.043 252.633 C 279.195 252.236,279.071 252.000,278.710 252.000 C 278.257 252.000,278.169 252.490,278.297 254.300 M314.000 252.179 C 314.000 252.289,314.540 252.659,315.200 253.000 C 315.860 253.341,316.400 253.531,316.400 253.421 C 316.400 253.311,315.860 252.941,315.200 252.600 C 314.540 252.259,314.000 252.069,314.000 252.179 M196.800 252.754 C 196.800 252.949,196.170 253.408,195.400 253.773 C 194.630 254.139,194.000 254.579,194.000 254.752 C 194.000 255.359,194.531 255.589,195.012 255.190 C 195.670 254.644,196.533 255.030,197.008 256.082 C 197.224 256.558,197.641 257.025,197.936 257.119 C 198.233 257.214,197.984 256.555,197.379 255.640 C 196.322 254.042,196.310 253.963,197.005 253.194 C 197.414 252.742,197.525 252.400,197.262 252.400 C 197.008 252.400,196.800 252.559,196.800 252.754 M208.000 252.754 C 208.000 252.949,207.370 253.408,206.600 253.773 C 205.830 254.139,205.200 254.579,205.200 254.752 C 205.200 255.359,205.731 255.589,206.212 255.190 C 206.870 254.644,207.733 255.030,208.208 256.082 C 208.424 256.558,208.841 257.025,209.136 257.119 C 209.433 257.214,209.184 256.555,208.579 255.640 C 207.522 254.042,207.510 253.963,208.205 253.194 C 208.614 252.742,208.725 252.400,208.462 252.400 C 208.208 252.400,208.000 252.559,208.000 252.754 M252.000 253.176 C 252.000 253.603,252.180 254.064,252.400 254.200 C 252.627 254.340,252.800 254.004,252.800 253.424 C 252.800 252.861,252.620 252.400,252.400 252.400 C 252.180 252.400,252.000 252.749,252.000 253.176 M257.900 252.628 C 257.735 252.796,257.600 253.479,257.600 254.147 C 257.600 255.014,257.723 255.237,258.031 254.929 C 258.268 254.692,258.403 254.008,258.331 253.410 C 258.259 252.812,258.065 252.461,257.900 252.628 M141.612 254.580 C 141.603 255.441,141.720 255.640,142.041 255.319 C 142.358 255.002,142.361 254.668,142.054 254.139 C 141.677 253.491,141.623 253.546,141.612 254.580 M185.679 254.500 C 185.823 255.253,185.675 255.400,184.776 255.400 C 184.081 255.400,183.770 255.224,183.894 254.900 C 183.999 254.625,183.886 254.400,183.643 254.400 C 183.399 254.400,183.200 254.814,183.200 255.320 C 183.200 255.826,182.984 256.456,182.720 256.720 C 182.399 257.041,182.385 257.200,182.677 257.200 C 182.918 257.200,183.218 256.930,183.345 256.600 C 183.489 256.223,184.101 256.000,184.987 256.000 C 185.976 256.000,186.400 256.180,186.400 256.600 C 186.400 256.930,186.601 257.200,186.847 257.200 C 187.126 257.200,187.189 256.863,187.014 256.300 C 186.861 255.805,186.639 254.995,186.521 254.500 C 186.403 254.005,186.127 253.600,185.907 253.600 C 185.687 253.600,185.584 254.005,185.679 254.500 M256.000 254.899 C 256.000 255.922,256.739 257.600,257.190 257.600 C 257.890 257.600,257.641 256.010,256.800 255.108 C 256.148 254.408,256.000 254.369,256.000 254.899 M304.400 254.579 C 304.400 254.689,304.940 255.059,305.600 255.400 C 306.260 255.741,306.800 255.931,306.800 255.821 C 306.800 255.711,306.260 255.341,305.600 255.000 C 304.940 254.659,304.400 254.469,304.400 254.579 M253.300 255.083 C 253.025 255.184,252.800 255.715,252.800 256.263 C 252.800 257.453,254.103 257.445,254.333 256.253 C 254.500 255.384,254.006 254.824,253.300 255.083 M230.815 256.182 C 230.549 256.503,230.464 256.980,230.627 257.243 C 230.839 257.587,231.073 257.515,231.461 256.984 C 232.410 255.687,231.826 254.963,230.815 256.182 M335.300 259.094 C 337.503 259.268,337.764 259.814,335.900 260.352 C 335.031 260.603,334.873 260.740,335.424 260.764 C 336.506 260.811,337.799 259.846,337.438 259.261 C 337.277 259.000,336.337 258.831,335.276 258.872 L 333.400 258.944 335.300 259.094 M319.000 260.400 C 319.440 260.589,320.160 260.738,320.600 260.732 C 321.243 260.723,321.204 260.657,320.400 260.400 C 319.032 259.962,317.981 259.962,319.000 260.400 M323.500 261.082 C 323.995 261.178,324.805 261.178,325.300 261.082 C 325.795 260.987,325.390 260.909,324.400 260.909 C 323.410 260.909,323.005 260.987,323.500 261.082 M330.705 261.083 C 331.202 261.179,331.922 261.175,332.305 261.075 C 332.687 260.975,332.280 260.896,331.400 260.901 C 330.520 260.905,330.207 260.987,330.705 261.083 M327.300 261.476 C 327.685 261.576,328.315 261.576,328.700 261.476 C 329.085 261.375,328.770 261.293,328.000 261.293 C 327.230 261.293,326.915 261.375,327.300 261.476 " stroke="none" fill="#747474" fill-rule="evenodd"></path></g></svg>