<svg id="svg" version="1.1" xmlns="http://www.w3.org/2000/svg" xmlns:xlink="http://www.w3.org/1999/xlink" width="400" height="400" viewBox="0, 0, 400,400"><g id="svgg"><path id="path0" d="M120.000 131.654 C 98.193 132.964,86.448 140.021,80.980 155.095 C 79.293 159.747,80.163 160.336,82.454 156.093 C 87.442 146.852,94.967 141.371,105.864 139.041 C 110.099 138.136,115.112 137.480,115.796 137.743 C 116.349 137.955,116.402 142.610,116.307 182.090 L 116.200 226.200 115.337 227.800 C 113.667 230.894,111.003 232.707,107.606 233.063 C 100.251 233.831,107.670 234.039,137.100 233.888 L 169.000 233.724 173.620 232.699 C 199.724 226.906,214.301 209.199,214.387 183.175 C 214.478 155.896,198.290 137.205,170.577 132.591 C 165.121 131.682,130.268 131.037,120.000 131.654 M214.400 131.948 C 214.400 132.140,215.454 132.416,216.743 132.562 C 220.810 133.022,223.869 135.574,225.048 139.493 C 225.884 142.269,225.864 222.994,225.027 225.775 C 223.734 230.075,220.760 232.655,216.607 233.084 C 210.342 233.731,216.035 234.000,235.976 234.000 C 255.956 234.000,261.958 233.720,255.744 233.079 C 250.875 232.577,247.464 228.994,247.011 223.907 C 246.868 222.308,246.807 202.640,246.876 180.200 L 247.000 139.400 247.882 137.750 C 249.471 134.781,252.218 132.969,255.766 132.552 C 261.626 131.864,256.208 131.600,236.200 131.600 C 224.089 131.600,214.400 131.755,214.400 131.948 M282.800 131.947 C 282.800 132.138,283.547 132.395,284.461 132.517 C 286.812 132.833,288.111 134.236,288.161 136.514 C 288.204 138.477,289.747 136.322,262.499 172.358 C 256.038 180.904,252.523 185.876,252.743 186.158 C 253.369 186.963,270.373 207.972,282.561 223.000 C 294.486 237.704,302.478 246.490,308.200 251.188 C 325.312 265.236,343.238 268.458,359.267 260.366 C 362.307 258.832,362.032 258.498,357.147 257.793 C 338.859 255.151,329.202 247.695,305.094 217.600 C 298.133 208.910,287.479 195.644,281.419 188.119 C 275.358 180.594,270.400 174.173,270.400 173.849 C 270.400 173.525,272.965 170.215,276.100 166.493 C 279.235 162.771,285.904 154.845,290.920 148.881 C 299.353 138.853,301.286 136.822,304.000 135.142 C 305.860 133.991,309.546 132.828,312.191 132.557 C 318.471 131.913,314.158 131.600,299.024 131.600 C 290.101 131.600,282.800 131.756,282.800 131.947 M164.824 138.444 C 179.952 142.226,189.406 156.485,190.725 177.509 C 192.316 202.859,183.515 221.108,166.892 226.930 L 163.400 228.154 150.800 228.177 L 138.200 228.200 138.098 182.900 L 137.997 137.600 149.722 137.600 C 160.319 137.600,161.773 137.681,164.824 138.444 " stroke="none" fill="#050505" fill-rule="evenodd"></path><path id="path1" d="M0.000 200.000 L 0.000 400.000 200.000 400.000 L 400.000 400.000 400.000 200.000 L 400.000 0.000 200.000 0.000 L 0.000 0.000 0.000 200.000 M165.000 131.207 C 194.488 133.929,212.575 150.868,214.833 177.876 C 217.408 208.665,199.219 230.546,168.002 234.213 C 160.475 235.097,104.883 235.081,104.543 234.195 C 104.152 233.176,105.185 232.401,106.949 232.391 C 110.146 232.374,113.403 230.152,114.848 227.000 C 115.546 225.480,115.583 223.236,115.591 181.861 L 115.600 138.321 113.100 138.593 C 97.651 140.270,87.849 146.359,82.367 157.685 C 80.419 161.712,78.556 160.334,79.961 155.905 C 84.480 141.665,95.644 133.621,113.974 131.399 C 119.245 130.760,158.557 130.612,165.000 131.207 M258.167 131.043 C 259.984 131.740,258.574 133.194,256.067 133.209 C 252.860 133.228,248.908 136.307,248.029 139.472 C 247.438 141.599,247.438 224.001,248.029 226.128 C 248.923 229.350,252.855 232.366,256.200 232.397 C 258.155 232.416,258.925 232.856,258.734 233.848 C 258.539 234.859,214.469 235.248,213.638 234.246 C 212.906 233.364,214.161 232.400,216.041 232.400 C 219.053 232.400,222.132 230.414,223.718 227.450 L 224.600 225.800 224.600 182.600 C 224.600 134.061,224.875 138.296,221.537 135.439 C 219.722 133.885,217.885 133.206,215.487 133.202 C 213.922 133.200,213.301 132.557,213.745 131.400 C 213.982 130.782,256.595 130.440,258.167 131.043 M315.367 131.043 C 317.282 131.778,315.615 133.179,312.800 133.199 C 306.039 133.249,303.083 135.541,290.515 150.486 C 285.502 156.447,279.106 164.042,276.302 167.362 C 270.305 174.464,270.534 173.479,273.915 177.650 C 277.691 182.309,297.743 207.252,307.959 220.000 C 330.007 247.512,340.073 254.967,358.190 257.202 C 363.003 257.796,363.762 258.896,360.499 260.550 C 345.445 268.178,329.437 266.766,314.039 256.452 C 305.700 250.866,298.827 244.034,287.105 229.678 C 271.786 210.918,252.194 186.718,251.889 186.181 C 251.678 185.809,254.366 181.942,260.274 174.117 C 290.717 133.793,288.313 137.287,287.135 135.074 C 286.484 133.853,285.570 133.229,284.400 133.207 C 282.026 133.164,280.476 131.720,282.100 131.065 C 282.821 130.774,314.612 130.753,315.367 131.043 M138.800 182.779 L 138.800 227.661 151.100 227.513 C 164.922 227.346,166.847 227.007,172.177 223.797 C 195.742 209.607,196.658 158.087,173.614 143.040 C 167.425 138.999,164.542 138.395,150.100 138.116 L 138.800 137.897 138.800 182.779 " stroke="none" fill="#fbfbfb" fill-rule="evenodd"></path><path id="path2" d="M129.128 131.100 C 135.359 131.162,145.439 131.162,151.528 131.100 C 157.618 131.038,152.520 130.987,140.200 130.987 C 127.880 130.987,122.898 131.038,129.128 131.100 M213.862 131.100 C 213.693 131.372,230.344 131.368,250.400 131.090 C 254.690 131.031,248.266 130.941,236.124 130.891 C 223.982 130.841,213.964 130.935,213.862 131.100 M282.100 131.065 C 281.534 131.293,281.409 132.800,281.956 132.800 C 282.151 132.800,282.286 132.485,282.256 132.100 C 282.204 131.447,283.308 131.386,298.800 131.193 L 315.400 130.987 299.000 130.925 C 289.980 130.891,282.375 130.954,282.100 131.065 M112.400 131.600 C 110.751 131.856,110.717 131.883,112.000 131.917 C 112.770 131.937,114.120 131.805,115.000 131.623 C 117.066 131.196,115.112 131.178,112.400 131.600 M165.800 131.618 C 166.900 131.790,168.430 131.922,169.200 131.912 C 170.333 131.897,170.218 131.834,168.600 131.582 C 167.500 131.410,165.970 131.278,165.200 131.288 C 164.067 131.303,164.182 131.366,165.800 131.618 M107.800 132.400 C 106.722 132.674,106.702 132.706,107.600 132.713 C 108.150 132.717,109.050 132.576,109.600 132.400 C 110.944 131.969,109.492 131.969,107.800 132.400 M171.600 132.400 C 172.150 132.576,173.050 132.717,173.600 132.713 C 174.498 132.706,174.478 132.674,173.400 132.400 C 171.708 131.969,170.256 131.969,171.600 132.400 M213.893 132.822 C 214.253 133.146,218.988 133.655,218.668 133.335 C 218.549 133.216,217.357 132.990,216.019 132.832 C 214.680 132.674,213.723 132.670,213.893 132.822 M104.600 133.200 C 104.096 133.417,104.022 133.544,104.400 133.544 C 104.730 133.544,105.360 133.389,105.800 133.200 C 106.304 132.983,106.378 132.856,106.000 132.856 C 105.670 132.856,105.040 133.011,104.600 133.200 M175.800 133.200 C 176.240 133.389,176.960 133.538,177.400 133.532 C 178.043 133.523,178.004 133.457,177.200 133.200 C 175.832 132.762,174.781 132.762,175.800 133.200 M254.046 133.163 C 253.705 133.379,254.242 133.441,255.446 133.324 C 258.155 133.060,258.533 132.868,256.400 132.838 C 255.410 132.824,254.351 132.970,254.046 133.163 M283.800 133.074 C 286.408 133.409,287.927 135.177,287.505 137.385 C 287.401 137.930,287.470 138.281,287.658 138.164 C 289.505 137.023,286.571 132.775,284.000 132.869 C 282.679 132.917,282.668 132.929,283.800 133.074 M310.200 133.185 C 309.730 133.378,310.473 133.426,312.000 133.302 C 313.430 133.187,314.675 133.026,314.767 132.946 C 315.104 132.651,310.974 132.867,310.200 133.185 M100.800 134.400 C 98.415 135.401,99.245 135.416,101.800 134.418 C 102.900 133.989,103.530 133.639,103.200 133.641 C 102.870 133.643,101.790 133.985,100.800 134.400 M220.677 134.757 C 221.555 135.393,222.663 136.408,223.137 137.011 C 223.612 137.614,224.000 137.949,224.000 137.754 C 223.998 136.942,220.280 133.600,219.378 133.600 C 219.214 133.600,219.799 134.121,220.677 134.757 M305.800 134.644 C 301.974 136.601,300.681 137.826,294.024 145.800 C 291.085 149.320,288.316 152.605,287.871 153.100 C 287.425 153.595,287.174 154.000,287.314 154.000 C 287.453 154.000,289.863 151.255,292.670 147.900 C 301.240 137.658,303.308 135.770,307.609 134.265 C 308.594 133.920,309.040 133.634,308.600 133.629 C 308.160 133.625,306.900 134.081,305.800 134.644 M250.314 135.330 C 248.996 136.551,247.826 138.359,248.146 138.679 C 248.286 138.819,248.400 138.719,248.400 138.458 C 248.400 138.196,249.143 137.176,250.051 136.191 C 251.818 134.274,251.962 133.802,250.314 135.330 M96.458 136.246 C 95.303 136.821,94.422 137.355,94.499 137.432 C 94.637 137.570,98.340 135.794,98.732 135.401 C 99.144 134.989,98.500 135.229,96.458 136.246 M184.758 136.037 C 185.725 136.466,186.588 136.745,186.675 136.658 C 186.848 136.486,183.765 135.182,183.292 135.228 C 183.131 135.244,183.791 135.608,184.758 136.037 M91.245 139.430 C 88.785 141.279,85.077 145.128,84.337 146.600 C 84.116 147.040,84.445 146.770,85.067 146.000 C 87.399 143.118,88.881 141.636,91.109 139.963 C 93.938 137.838,94.221 137.600,93.920 137.600 C 93.787 137.600,92.584 138.423,91.245 139.430 M138.667 137.867 C 138.520 138.013,138.400 158.353,138.400 183.067 L 138.400 228.000 149.900 227.953 C 156.225 227.927,161.934 227.792,162.586 227.653 C 163.238 227.514,158.153 227.459,151.286 227.531 L 138.800 227.661 138.800 182.782 L 138.800 137.903 150.100 138.053 C 156.315 138.136,160.410 138.086,159.200 137.942 C 156.263 137.591,139.005 137.528,138.667 137.867 M189.357 138.079 C 189.774 138.365,191.696 139.623,193.628 140.874 C 198.843 144.248,202.663 148.026,207.319 154.414 C 208.411 155.913,207.626 154.440,206.252 152.412 C 203.151 147.835,196.077 141.539,191.000 138.835 C 189.680 138.132,188.941 137.792,189.357 138.079 M114.905 138.253 C 115.574 138.450,115.605 140.723,115.505 182.402 C 115.447 206.570,115.536 226.101,115.702 225.804 C 116.522 224.338,115.833 138.214,115.000 138.128 C 114.368 138.063,114.348 138.090,114.905 138.253 M109.000 138.815 C 108.244 139.018,108.762 139.054,110.400 138.915 C 111.830 138.793,113.075 138.628,113.167 138.547 C 113.470 138.280,110.222 138.489,109.000 138.815 M162.033 138.544 C 162.125 138.624,163.010 138.796,164.000 138.927 C 165.202 139.086,165.534 139.047,165.000 138.810 C 164.236 138.472,161.686 138.243,162.033 138.544 M224.352 139.687 C 224.537 140.798,224.593 140.855,224.719 140.054 C 224.801 139.533,224.703 138.943,224.501 138.741 C 224.279 138.519,224.221 138.893,224.352 139.687 M284.639 141.800 C 283.397 143.450,282.520 144.793,282.690 144.785 C 282.972 144.771,283.584 143.980,286.314 140.100 C 288.052 137.630,286.890 138.810,284.639 141.800 M105.000 139.619 C 104.442 139.871,104.685 139.907,105.800 139.738 C 106.680 139.604,107.475 139.428,107.567 139.347 C 107.910 139.044,105.768 139.271,105.000 139.619 M247.452 140.100 C 247.118 141.347,247.192 224.838,247.528 225.685 C 247.678 226.062,247.800 206.757,247.800 182.785 C 247.800 158.813,247.776 139.200,247.747 139.200 C 247.717 139.200,247.585 139.605,247.452 140.100 M102.000 140.418 C 101.562 140.715,101.724 140.752,102.600 140.556 C 104.071 140.227,104.390 139.998,103.367 140.006 C 102.945 140.009,102.330 140.195,102.000 140.418 M168.433 140.143 C 168.946 140.584,172.804 142.330,172.625 142.040 C 172.406 141.685,169.029 140.000,168.538 140.000 C 168.389 140.000,168.342 140.064,168.433 140.143 M98.900 141.434 C 98.185 141.746,97.600 142.090,97.600 142.198 C 97.600 142.376,100.776 141.251,101.167 140.935 C 101.595 140.588,100.062 140.926,98.900 141.434 M224.993 182.800 C 224.993 205.350,225.041 214.575,225.100 203.300 C 225.159 192.025,225.159 173.575,225.100 162.300 C 225.041 151.025,224.993 160.250,224.993 182.800 M94.110 143.960 C 92.783 144.818,91.554 145.763,91.380 146.060 C 91.200 146.367,91.395 146.310,91.831 145.930 C 92.254 145.561,93.669 144.616,94.976 143.830 C 96.284 143.043,97.166 142.400,96.938 142.400 C 96.711 142.400,95.438 143.102,94.110 143.960 M174.200 143.269 C 176.782 145.233,179.779 148.318,181.518 150.800 C 183.644 153.836,184.301 154.598,183.588 153.200 C 182.112 150.309,176.099 143.855,173.882 142.782 C 173.351 142.526,173.477 142.719,174.200 143.269 M280.975 146.668 C 280.359 147.476,280.059 148.011,280.309 147.856 C 280.821 147.540,282.553 145.200,282.275 145.200 C 282.176 145.200,281.591 145.861,280.975 146.668 M88.386 148.700 L 86.200 151.000 88.500 148.814 C 89.765 147.611,90.800 146.576,90.800 146.514 C 90.800 146.217,90.418 146.563,88.386 148.700 M83.000 148.800 C 82.659 149.460,82.469 150.000,82.579 150.000 C 82.689 150.000,83.059 149.460,83.400 148.800 C 83.741 148.140,83.931 147.600,83.821 147.600 C 83.711 147.600,83.341 148.140,83.000 148.800 M278.575 149.868 C 277.959 150.676,277.659 151.211,277.909 151.056 C 278.421 150.740,280.153 148.400,279.875 148.400 C 279.776 148.400,279.191 149.061,278.575 149.868 M85.227 152.100 C 84.178 153.770,83.054 155.801,83.290 155.600 C 83.837 155.135,86.322 151.200,86.069 151.200 C 85.917 151.200,85.538 151.605,85.227 152.100 M276.175 153.068 C 275.559 153.876,275.259 154.411,275.509 154.256 C 276.021 153.940,277.753 151.600,277.475 151.600 C 277.376 151.600,276.791 152.261,276.175 153.068 M281.800 160.248 C 279.160 163.433,276.370 166.788,275.600 167.703 C 274.830 168.618,274.404 169.242,274.652 169.089 C 275.332 168.672,287.268 154.396,286.910 154.428 C 286.739 154.444,284.440 157.063,281.800 160.248 M274.344 155.500 C 273.075 157.032,272.619 157.742,273.081 157.465 C 273.593 157.158,275.369 154.800,275.089 154.800 C 274.998 154.800,274.663 155.115,274.344 155.500 M208.600 156.800 C 208.941 157.460,209.311 158.000,209.421 158.000 C 209.531 158.000,209.341 157.460,209.000 156.800 C 208.659 156.140,208.289 155.600,208.179 155.600 C 208.069 155.600,208.259 156.140,208.600 156.800 M81.922 157.700 C 80.697 159.920,79.779 159.965,79.859 157.800 L 79.917 156.200 79.495 157.522 C 78.552 160.468,80.912 160.687,82.322 157.785 C 83.424 155.518,83.157 155.461,81.922 157.700 M185.600 157.756 C 185.600 158.165,187.184 161.342,187.191 160.949 C 187.203 160.365,186.049 157.600,185.795 157.600 C 185.688 157.600,185.600 157.670,185.600 157.756 M268.735 162.900 C 266.705 165.595,262.321 171.400,258.991 175.800 C 253.484 183.078,250.795 186.848,251.859 185.800 C 252.083 185.580,256.571 179.672,261.833 172.670 C 267.095 165.669,271.730 159.504,272.133 158.970 C 272.537 158.437,272.767 158.000,272.646 158.000 C 272.524 158.000,270.764 160.205,268.735 162.900 M188.068 164.400 C 188.088 165.439,188.718 167.146,188.732 166.200 C 188.738 165.760,188.589 165.040,188.400 164.600 C 188.189 164.110,188.061 164.032,188.068 164.400 M212.006 164.633 C 212.009 165.055,212.195 165.670,212.418 166.000 C 212.715 166.438,212.752 166.276,212.556 165.400 C 212.227 163.929,211.998 163.610,212.006 164.633 M212.868 167.400 C 212.862 167.840,213.011 168.560,213.200 169.000 C 213.638 170.019,213.638 168.968,213.200 167.600 C 212.943 166.796,212.877 166.757,212.868 167.400 M189.073 169.200 C 189.204 170.190,189.376 171.075,189.456 171.167 C 189.757 171.514,189.528 168.964,189.190 168.200 C 188.953 167.666,188.914 167.998,189.073 169.200 M272.250 171.643 C 271.077 173.164,270.786 173.827,271.050 174.373 C 271.582 175.469,280.954 187.158,281.320 187.180 C 281.496 187.191,279.370 184.397,276.596 180.972 C 270.477 173.415,270.723 174.018,272.775 171.584 C 273.695 170.493,274.302 169.608,274.124 169.617 C 273.946 169.626,273.103 170.538,272.250 171.643 M213.695 170.800 C 213.695 171.350,213.832 172.340,214.000 173.000 C 214.272 174.070,214.305 174.092,214.305 173.200 C 214.305 172.650,214.168 171.660,214.000 171.000 C 213.728 169.930,213.695 169.908,213.695 170.800 M189.914 176.600 C 190.021 179.240,190.174 181.475,190.254 181.567 C 190.534 181.887,190.351 174.986,190.037 173.400 C 189.847 172.438,189.798 173.714,189.914 176.600 M214.586 182.800 C 214.590 189.982,214.631 190.513,214.916 187.074 C 215.095 184.915,215.093 181.225,214.912 178.874 C 214.612 174.981,214.583 175.331,214.586 182.800 M190.080 186.844 C 190.036 188.518,189.915 190.768,189.811 191.844 L 189.622 193.800 190.027 191.859 C 190.250 190.792,190.371 188.542,190.297 186.859 L 190.161 183.800 190.080 186.844 M253.129 187.910 C 253.860 188.833,254.670 189.720,254.929 189.879 C 255.188 190.039,254.802 189.414,254.071 188.490 C 253.340 187.567,252.530 186.680,252.271 186.521 C 252.012 186.361,252.398 186.986,253.129 187.910 M282.887 189.384 C 283.609 190.366,284.347 191.176,284.527 191.184 C 284.707 191.193,284.190 190.390,283.379 189.400 C 281.483 187.086,281.190 187.077,282.887 189.384 M260.070 196.421 C 262.751 199.733,265.116 202.548,265.325 202.677 C 265.534 202.806,263.476 200.106,260.752 196.678 C 258.029 193.249,255.664 190.434,255.497 190.422 C 255.331 190.410,257.388 193.110,260.070 196.421 M285.929 193.110 C 286.660 194.033,287.470 194.920,287.729 195.079 C 287.988 195.239,287.602 194.614,286.871 193.690 C 286.140 192.767,285.330 191.880,285.071 191.721 C 284.812 191.561,285.198 192.186,285.929 193.110 M213.800 193.600 C 213.646 194.510,213.604 195.338,213.707 195.440 C 213.810 195.543,214.013 194.877,214.160 193.960 C 214.307 193.043,214.348 192.215,214.253 192.120 C 214.158 192.024,213.954 192.690,213.800 193.600 M189.055 196.255 C 188.913 197.286,188.874 198.208,188.969 198.302 C 189.063 198.396,189.265 197.639,189.418 196.618 C 189.571 195.598,189.610 194.676,189.504 194.571 C 189.398 194.465,189.196 195.223,189.055 196.255 M297.650 207.679 C 303.012 214.432,307.533 219.967,307.696 219.979 C 308.025 220.002,290.469 197.989,288.892 196.400 C 288.346 195.850,292.287 200.925,297.650 207.679 M213.000 197.600 C 212.848 198.291,212.807 198.941,212.909 199.042 C 213.011 199.144,213.209 198.653,213.350 197.950 C 213.683 196.283,213.360 195.960,213.000 197.600 M188.250 200.050 C 187.917 201.717,188.240 202.040,188.600 200.400 C 188.752 199.709,188.793 199.059,188.691 198.958 C 188.589 198.856,188.391 199.347,188.250 200.050 M211.011 203.891 C 210.624 204.941,209.603 207.105,208.743 208.700 C 207.883 210.295,207.265 211.600,207.370 211.600 C 207.969 211.600,212.278 202.545,211.872 202.139 C 211.786 202.053,211.399 202.841,211.011 203.891 M270.470 209.221 C 273.151 212.533,275.516 215.348,275.725 215.477 C 275.934 215.606,273.876 212.906,271.152 209.478 C 268.429 206.049,266.064 203.234,265.897 203.222 C 265.731 203.210,267.788 205.910,270.470 209.221 M185.168 208.890 C 183.465 212.564,180.378 216.920,177.448 219.785 C 175.882 221.316,175.169 222.170,175.865 221.682 C 179.194 219.348,187.285 207.952,186.307 206.974 C 186.213 206.880,185.700 207.742,185.168 208.890 M204.617 215.029 C 200.489 220.299,195.479 224.436,189.383 227.609 C 185.867 229.439,185.211 229.879,187.008 229.200 C 193.349 226.806,203.660 218.174,206.957 212.500 C 207.636 211.331,206.838 212.193,204.617 215.029 M280.835 222.011 C 283.518 225.317,285.896 228.136,286.121 228.275 C 286.346 228.414,284.296 225.722,281.565 222.292 C 278.834 218.863,276.456 216.044,276.279 216.028 C 276.103 216.013,278.153 218.705,280.835 222.011 M309.287 222.184 C 310.009 223.166,310.747 223.976,310.927 223.984 C 311.107 223.993,310.590 223.190,309.779 222.200 C 307.883 219.886,307.590 219.877,309.287 222.184 M224.448 225.200 C 224.351 226.789,222.743 229.250,220.867 230.681 C 219.916 231.407,219.299 232.000,219.497 232.000 C 221.111 232.000,225.012 226.782,224.678 225.069 C 224.526 224.287,224.503 224.300,224.448 225.200 M311.938 225.500 C 316.797 232.242,328.349 244.199,332.937 247.234 L 334.200 248.069 333.200 247.206 C 332.650 246.731,330.695 245.051,328.855 243.471 C 325.098 240.247,318.682 233.390,314.372 227.992 C 311.650 224.584,310.230 223.129,311.938 225.500 M164.800 226.800 C 163.976 227.064,163.941 227.126,164.600 227.154 C 165.040 227.173,165.670 227.013,166.000 226.800 C 166.701 226.347,166.214 226.347,164.800 226.800 M114.632 227.498 C 113.923 229.734,110.525 231.980,107.200 232.410 C 105.170 232.673,105.127 232.699,106.640 232.748 C 110.133 232.859,116.571 228.437,115.082 226.949 C 114.967 226.834,114.765 227.081,114.632 227.498 M249.266 229.085 C 250.701 231.243,253.829 232.829,256.487 232.748 C 258.140 232.697,258.123 232.685,255.990 232.410 C 253.339 232.068,252.298 231.569,250.238 229.653 C 249.373 228.848,248.939 228.595,249.266 229.085 M287.755 230.519 C 288.603 231.553,289.380 232.400,289.482 232.400 C 289.755 232.400,287.221 229.260,286.677 228.924 C 286.422 228.766,286.907 229.484,287.755 230.519 M181.016 231.064 C 180.145 231.378,179.335 231.731,179.217 231.850 C 178.901 232.166,181.209 231.553,182.600 230.951 C 184.200 230.258,183.017 230.343,181.016 231.064 M176.600 232.400 C 175.581 232.838,176.632 232.838,178.000 232.400 C 178.804 232.143,178.843 232.077,178.200 232.068 C 177.760 232.062,177.040 232.211,176.600 232.400 M216.200 232.400 L 214.200 232.674 216.000 232.731 C 216.990 232.762,218.070 232.613,218.400 232.400 C 218.730 232.187,218.820 232.038,218.600 232.069 C 218.380 232.100,217.300 232.249,216.200 232.400 M172.800 233.200 C 171.456 233.631,172.908 233.631,174.600 233.200 C 175.678 232.926,175.698 232.894,174.800 232.887 C 174.250 232.883,173.350 233.024,172.800 233.200 M258.432 233.500 L 258.400 234.400 236.280 234.400 C 219.150 234.400,214.034 234.287,213.599 233.900 C 213.122 233.475,213.118 233.504,213.568 234.100 C 214.062 234.752,215.622 234.800,236.262 234.800 C 259.606 234.800,259.355 234.819,258.669 233.113 C 258.556 232.831,258.449 233.005,258.432 233.500 M291.418 235.000 C 292.451 236.210,293.374 237.200,293.467 237.200 C 293.783 237.200,290.203 232.845,289.869 232.822 C 289.687 232.810,290.384 233.790,291.418 235.000 M104.528 233.800 C 104.610 234.592,104.906 234.600,134.405 234.604 L 164.200 234.608 134.529 234.501 C 106.710 234.402,104.845 234.351,104.652 233.697 C 104.493 233.160,104.465 233.183,104.528 233.800 M167.200 234.021 C 166.299 234.224,166.797 234.259,168.600 234.119 C 170.140 233.999,171.475 233.834,171.567 233.751 C 171.852 233.492,168.671 233.689,167.200 234.021 M295.013 239.300 C 304.053 249.052,311.510 255.413,317.884 258.809 C 320.470 260.186,320.339 260.088,314.640 256.352 C 308.172 252.114,301.683 246.333,295.497 239.300 C 294.675 238.365,293.875 237.600,293.720 237.600 C 293.565 237.600,294.147 238.365,295.013 239.300 M336.800 249.764 C 336.800 249.997,341.519 252.800,341.910 252.800 C 342.251 252.800,341.118 252.044,338.700 250.656 C 337.655 250.057,336.800 249.655,336.800 249.764 M344.600 254.015 C 345.920 254.645,347.270 255.165,347.600 255.169 C 347.930 255.174,346.945 254.643,345.412 253.989 C 341.899 252.491,341.440 252.506,344.600 254.015 M348.800 255.582 C 349.130 255.805,349.745 255.991,350.167 255.994 C 351.190 256.002,350.871 255.773,349.400 255.444 C 348.524 255.248,348.362 255.285,348.800 255.582 M351.800 256.400 C 352.240 256.589,352.960 256.738,353.400 256.732 C 354.043 256.723,354.004 256.657,353.200 256.400 C 351.832 255.962,350.781 255.962,351.800 256.400 M355.600 257.198 C 356.588 257.516,360.289 257.735,359.967 257.456 C 359.875 257.377,358.630 257.214,357.200 257.094 C 355.640 256.963,355.000 257.005,355.600 257.198 M361.558 258.149 C 361.809 258.451,361.894 259.036,361.748 259.449 C 361.541 260.034,361.592 260.099,361.981 259.740 C 362.540 259.225,362.193 257.600,361.524 257.600 C 361.244 257.600,361.256 257.785,361.558 258.149 M357.700 261.434 C 356.985 261.746,356.400 262.094,356.400 262.207 C 356.400 262.415,359.206 261.327,359.546 260.987 C 359.886 260.647,359.020 260.857,357.700 261.434 M353.416 263.064 C 352.545 263.378,351.735 263.731,351.617 263.850 C 351.301 264.166,353.609 263.553,355.000 262.951 C 356.600 262.258,355.417 262.343,353.416 263.064 M328.600 263.600 C 329.040 263.789,329.670 263.944,330.000 263.944 C 330.378 263.944,330.304 263.817,329.800 263.600 C 329.360 263.411,328.730 263.256,328.400 263.256 C 328.022 263.256,328.096 263.383,328.600 263.600 M331.800 264.400 C 333.492 264.831,334.944 264.831,333.600 264.400 C 333.050 264.224,332.150 264.083,331.600 264.087 C 330.702 264.094,330.722 264.126,331.800 264.400 M348.800 264.400 C 348.008 264.654,347.967 264.720,348.600 264.720 C 349.040 264.720,349.850 264.576,350.400 264.400 C 351.192 264.146,351.233 264.080,350.600 264.080 C 350.160 264.080,349.350 264.224,348.800 264.400 M339.000 265.221 C 340.980 265.376,343.770 265.382,345.200 265.235 C 347.076 265.043,346.073 264.964,341.600 264.954 C 336.136 264.942,335.827 264.973,339.000 265.221 " stroke="none" fill="#a1a1a1" fill-rule="evenodd"></path><path id="path3" d="M116.400 131.598 C 115.410 131.751,116.940 131.789,119.800 131.683 C 122.660 131.576,125.075 131.424,125.167 131.344 C 125.451 131.098,118.299 131.305,116.400 131.598 M134.400 131.456 C 137.300 131.707,166.103 131.789,164.000 131.540 C 162.790 131.396,155.320 131.292,147.400 131.307 C 139.480 131.322,133.630 131.389,134.400 131.456 M214.000 131.997 C 214.000 132.686,214.242 132.790,215.700 132.733 L 217.400 132.666 215.900 132.509 C 215.075 132.422,214.400 132.183,214.400 131.976 C 214.400 131.746,222.867 131.600,236.200 131.600 C 249.533 131.600,258.000 131.746,258.000 131.976 C 258.000 132.183,257.325 132.429,256.500 132.524 L 255.000 132.695 256.600 132.648 C 257.734 132.614,258.200 132.425,258.200 132.000 C 258.200 131.475,255.432 131.387,236.100 131.297 C 214.201 131.194,214.000 131.201,214.000 131.997 M282.228 131.555 C 281.848 132.169,283.104 132.865,284.276 132.689 C 285.352 132.527,285.345 132.517,284.100 132.460 C 283.385 132.427,282.800 132.220,282.800 132.000 C 282.800 131.740,288.493 131.600,299.080 131.600 C 313.648 131.600,318.755 131.932,313.000 132.506 L 311.400 132.666 313.000 132.727 C 314.783 132.795,315.846 132.321,315.428 131.645 C 315.089 131.097,282.565 131.009,282.228 131.555 M110.200 132.410 C 109.666 132.647,109.998 132.686,111.200 132.527 C 112.190 132.396,113.075 132.224,113.167 132.144 C 113.514 131.843,110.964 132.072,110.200 132.410 M168.033 132.149 C 168.125 132.231,169.100 132.401,170.200 132.528 C 171.549 132.684,171.874 132.649,171.200 132.420 C 170.201 132.080,167.718 131.868,168.033 132.149 M106.400 133.218 C 105.962 133.515,106.124 133.552,107.000 133.356 C 108.471 133.027,108.790 132.798,107.767 132.806 C 107.345 132.809,106.730 132.995,106.400 133.218 M218.433 132.949 C 218.845 133.317,221.200 134.400,221.200 134.221 C 221.200 133.990,218.982 132.800,218.553 132.800 C 218.396 132.800,218.342 132.867,218.433 132.949 M286.726 133.912 C 287.316 134.524,287.876 134.974,287.968 134.911 C 288.199 134.755,286.335 132.800,285.956 132.800 C 285.788 132.800,286.135 133.301,286.726 133.912 M308.600 133.200 C 308.096 133.417,308.022 133.544,308.400 133.544 C 308.730 133.544,309.360 133.389,309.800 133.200 C 310.304 132.983,310.378 132.856,310.000 132.856 C 309.670 132.856,309.040 133.011,308.600 133.200 M222.939 136.131 C 223.743 137.192,224.400 138.257,224.400 138.497 C 224.400 138.737,224.511 138.823,224.646 138.688 C 224.962 138.371,223.483 135.975,222.352 134.974 C 221.872 134.548,222.136 135.069,222.939 136.131 M249.241 135.814 C 248.559 136.592,248.000 137.348,248.000 137.494 C 248.000 137.640,248.136 137.589,248.303 137.380 C 248.470 137.171,249.133 136.415,249.778 135.700 C 250.422 134.985,250.845 134.400,250.716 134.400 C 250.588 134.400,249.924 135.036,249.241 135.814 M299.774 138.507 L 298.200 140.199 299.796 138.799 C 300.673 138.030,301.468 137.355,301.562 137.300 C 301.656 137.245,301.647 137.113,301.541 137.007 C 301.435 136.901,300.640 137.576,299.774 138.507 M112.000 138.012 C 111.047 138.233,111.461 138.268,113.298 138.122 L 115.996 137.907 116.101 181.554 L 116.205 225.200 116.203 181.500 L 116.200 137.800 114.800 137.744 C 114.030 137.713,112.770 137.833,112.000 138.012 M138.197 182.800 L 138.200 228.200 149.400 228.209 L 160.600 228.219 149.502 228.103 L 138.403 227.988 138.299 182.694 L 138.195 137.400 138.197 182.800 M161.000 138.000 C 161.660 138.168,162.650 138.305,163.200 138.305 C 164.092 138.305,164.070 138.272,163.000 138.000 C 162.340 137.832,161.350 137.695,160.800 137.695 C 159.908 137.695,159.930 137.728,161.000 138.000 M187.633 137.749 C 188.045 138.117,190.400 139.200,190.400 139.021 C 190.400 138.790,188.182 137.600,187.753 137.600 C 187.596 137.600,187.542 137.667,187.633 137.749 M106.800 138.800 C 106.008 139.054,105.967 139.120,106.600 139.120 C 107.040 139.120,107.850 138.976,108.400 138.800 C 109.192 138.546,109.233 138.480,108.600 138.480 C 108.160 138.480,107.350 138.624,106.800 138.800 M103.400 139.600 C 102.896 139.817,102.822 139.944,103.200 139.944 C 103.530 139.944,104.160 139.789,104.600 139.600 C 105.104 139.383,105.178 139.256,104.800 139.256 C 104.470 139.256,103.840 139.411,103.400 139.600 M190.800 139.297 C 190.910 139.419,192.260 140.345,193.800 141.356 C 195.340 142.367,196.020 142.691,195.310 142.076 C 194.202 141.116,190.238 138.673,190.800 139.297 M225.000 182.600 C 225.000 206.496,225.117 225.632,225.260 225.124 C 225.403 224.616,225.520 205.480,225.520 182.600 C 225.520 159.720,225.403 140.584,225.260 140.076 C 225.117 139.568,225.000 158.704,225.000 182.600 M286.344 140.300 C 285.193 141.689,284.706 142.400,284.904 142.400 C 285.014 142.400,285.586 141.770,286.173 141.000 C 287.263 139.571,287.395 139.032,286.344 140.300 M295.000 144.000 C 293.320 145.980,292.036 147.600,292.146 147.600 C 292.256 147.600,293.720 145.980,295.400 144.000 C 297.080 142.020,298.364 140.400,298.254 140.400 C 298.144 140.400,296.680 142.020,295.000 144.000 M97.800 141.578 C 96.920 141.995,96.313 142.350,96.451 142.368 C 96.840 142.418,99.600 141.214,99.600 140.995 C 99.600 140.727,99.599 140.727,97.800 141.578 M246.993 182.600 C 246.993 205.480,247.041 214.781,247.100 203.269 C 247.159 191.758,247.159 173.038,247.100 161.669 C 247.041 150.301,246.993 159.720,246.993 182.600 M94.400 143.248 C 90.383 145.673,85.973 150.068,83.811 153.800 C 82.964 155.262,83.624 154.473,85.982 151.204 C 87.711 148.806,92.458 144.611,94.831 143.384 C 95.474 143.052,96.000 142.694,96.000 142.590 C 96.000 142.300,95.905 142.340,94.400 143.248 M283.944 143.500 C 282.793 144.889,282.306 145.600,282.504 145.600 C 282.614 145.600,283.186 144.970,283.773 144.200 C 284.863 142.771,284.995 142.232,283.944 143.500 M86.434 144.553 L 85.469 145.800 86.613 144.712 C 87.243 144.114,87.677 143.553,87.579 143.465 C 87.480 143.377,86.965 143.867,86.434 144.553 M176.800 144.796 C 177.790 145.711,179.290 147.211,180.133 148.130 L 181.665 149.800 180.206 147.926 C 179.404 146.896,177.904 145.396,176.874 144.592 L 175.000 143.132 176.800 144.796 M200.383 146.500 C 202.041 148.266,202.400 148.584,202.400 148.283 C 202.400 148.219,201.545 147.364,200.500 146.383 L 198.600 144.600 200.383 146.500 M279.000 150.000 C 277.334 152.200,276.061 154.000,276.171 154.000 C 276.281 154.000,277.734 152.200,279.400 150.000 C 281.066 147.800,282.339 146.000,282.229 146.000 C 282.119 146.000,280.666 147.800,279.000 150.000 M290.801 148.998 C 290.286 149.548,289.939 150.064,290.032 150.146 C 290.124 150.228,290.619 149.778,291.130 149.147 C 292.276 147.735,292.074 147.644,290.801 148.998 M82.580 150.440 C 82.011 151.562,81.613 152.547,81.695 152.629 C 81.777 152.711,82.327 151.793,82.918 150.589 C 83.508 149.385,83.906 148.400,83.802 148.400 C 83.698 148.400,83.148 149.318,82.580 150.440 M182.585 151.500 C 183.202 152.435,183.783 153.200,183.876 153.200 C 184.164 153.200,182.633 150.766,182.032 150.269 C 181.720 150.011,181.968 150.565,182.585 151.500 M287.349 153.084 C 286.277 154.340,285.609 155.239,285.864 155.083 C 286.423 154.739,289.754 150.800,289.486 150.800 C 289.382 150.800,288.420 151.828,287.349 153.084 M206.028 153.400 C 207.685 155.949,208.412 156.691,207.204 154.600 C 206.695 153.720,205.930 152.640,205.504 152.200 C 205.077 151.760,205.313 152.300,206.028 153.400 M184.600 154.800 C 184.941 155.460,185.311 156.000,185.421 156.000 C 185.531 156.000,185.341 155.460,185.000 154.800 C 184.659 154.140,184.289 153.600,184.179 153.600 C 184.069 153.600,184.259 154.140,184.600 154.800 M274.575 155.868 C 273.959 156.676,273.659 157.211,273.909 157.056 C 274.421 156.740,276.153 154.400,275.875 154.400 C 275.776 154.400,275.191 155.061,274.575 155.868 M82.200 156.400 C 81.859 157.060,81.669 157.600,81.779 157.600 C 81.889 157.600,82.259 157.060,82.600 156.400 C 82.941 155.740,83.131 155.200,83.021 155.200 C 82.911 155.200,82.541 155.740,82.200 156.400 M284.368 156.700 C 282.230 159.095,281.421 160.117,281.864 159.863 C 282.119 159.717,283.081 158.698,284.001 157.599 C 285.768 155.488,286.037 154.830,284.368 156.700 M272.744 158.300 C 271.475 159.832,271.019 160.542,271.481 160.265 C 271.993 159.958,273.769 157.600,273.489 157.600 C 273.398 157.600,273.063 157.915,272.744 158.300 M79.632 158.528 C 79.595 159.378,81.269 159.343,81.439 158.490 C 81.494 158.210,81.449 158.165,81.337 158.390 C 81.054 158.961,80.108 158.903,79.865 158.300 C 79.748 158.011,79.650 158.108,79.632 158.528 M278.200 164.000 C 276.520 165.980,275.236 167.600,275.346 167.600 C 275.456 167.600,276.920 165.980,278.600 164.000 C 280.280 162.020,281.564 160.400,281.454 160.400 C 281.344 160.400,279.880 162.020,278.200 164.000 M270.344 161.500 C 269.193 162.889,268.706 163.600,268.904 163.600 C 269.014 163.600,269.586 162.970,270.173 162.200 C 271.263 160.771,271.395 160.232,270.344 161.500 M267.944 164.700 C 266.793 166.089,266.306 166.800,266.504 166.800 C 266.614 166.800,267.186 166.170,267.773 165.400 C 268.863 163.971,268.995 163.432,267.944 164.700 M212.056 166.000 C 212.056 166.330,212.211 166.960,212.400 167.400 C 212.617 167.904,212.744 167.978,212.744 167.600 C 212.744 167.270,212.589 166.640,212.400 166.200 C 212.183 165.696,212.056 165.622,212.056 166.000 M265.544 167.900 C 264.393 169.289,263.906 170.000,264.104 170.000 C 264.214 170.000,264.786 169.370,265.373 168.600 C 266.463 167.171,266.595 166.632,265.544 167.900 M273.800 169.200 C 273.168 169.860,272.819 170.390,273.025 170.378 C 273.378 170.357,275.439 168.000,275.105 168.000 C 275.020 168.000,274.432 168.540,273.800 169.200 M212.868 169.200 C 212.888 170.239,213.518 171.946,213.532 171.000 C 213.538 170.560,213.389 169.840,213.200 169.400 C 212.989 168.910,212.861 168.832,212.868 169.200 M189.695 170.000 C 189.695 170.550,189.832 171.540,190.000 172.200 C 190.272 173.270,190.305 173.292,190.305 172.400 C 190.305 171.850,190.168 170.860,190.000 170.200 C 189.728 169.130,189.695 169.108,189.695 170.000 M263.144 171.100 C 261.993 172.489,261.506 173.200,261.704 173.200 C 261.814 173.200,262.386 172.570,262.973 171.800 C 264.063 170.371,264.195 169.832,263.144 171.100 M271.729 171.700 C 271.284 172.195,270.776 172.870,270.601 173.200 C 270.263 173.837,270.355 173.750,271.976 171.900 C 272.506 171.295,272.849 170.800,272.739 170.800 C 272.629 170.800,272.175 171.205,271.729 171.700 M213.885 175.200 C 214.007 176.630,214.172 177.875,214.253 177.967 C 214.520 178.270,214.311 175.022,213.985 173.800 C 213.782 173.044,213.746 173.562,213.885 175.200 M259.777 175.500 C 257.654 178.154,257.477 178.400,257.692 178.400 C 257.796 178.400,258.730 177.320,259.768 176.000 C 260.805 174.680,261.573 173.600,261.475 173.600 C 261.377 173.600,260.612 174.455,259.777 175.500 M190.537 178.600 C 190.539 180.360,190.609 181.030,190.693 180.089 C 190.778 179.149,190.777 177.709,190.691 176.889 C 190.605 176.070,190.536 176.840,190.537 178.600 M256.744 179.500 C 255.593 180.889,255.106 181.600,255.304 181.600 C 255.414 181.600,255.986 180.970,256.573 180.200 C 257.663 178.771,257.795 178.232,256.744 179.500 M254.344 182.700 C 253.193 184.089,252.706 184.800,252.904 184.800 C 253.014 184.800,253.586 184.170,254.173 183.400 C 255.263 181.971,255.395 181.432,254.344 182.700 M278.155 184.119 C 279.003 185.153,279.780 186.000,279.882 186.000 C 280.155 186.000,277.621 182.860,277.077 182.524 C 276.822 182.366,277.307 183.084,278.155 184.119 M190.537 187.000 C 190.539 188.760,190.609 189.430,190.693 188.489 C 190.778 187.549,190.777 186.109,190.691 185.289 C 190.605 184.470,190.536 185.240,190.537 187.000 M252.646 186.434 C 253.342 187.680,256.206 191.166,256.549 191.183 C 256.740 191.192,256.033 190.165,254.977 188.900 C 252.573 186.020,252.189 185.614,252.646 186.434 M285.850 193.700 C 289.078 197.715,292.166 201.450,292.714 202.000 C 293.261 202.550,290.760 199.277,287.155 194.727 C 283.550 190.177,280.461 186.442,280.291 186.427 C 280.121 186.412,282.623 189.685,285.850 193.700 M214.101 189.400 C 214.105 190.280,214.187 190.593,214.283 190.095 C 214.379 189.598,214.375 188.878,214.275 188.495 C 214.175 188.113,214.096 188.520,214.101 189.400 M189.818 194.218 C 189.665 195.239,189.622 196.155,189.722 196.255 C 189.822 196.355,190.029 195.602,190.182 194.582 C 190.335 193.561,190.378 192.645,190.278 192.545 C 190.178 192.445,189.971 193.198,189.818 194.218 M189.029 198.629 C 188.881 199.215,188.838 199.772,188.932 199.866 C 189.027 199.960,189.224 199.558,189.371 198.971 C 189.519 198.385,189.562 197.828,189.468 197.734 C 189.373 197.640,189.176 198.042,189.029 198.629 M264.086 200.747 C 265.469 202.478,266.665 203.838,266.744 203.769 C 266.911 203.626,262.043 197.600,261.761 197.600 C 261.657 197.600,262.704 199.016,264.086 200.747 M188.229 201.829 C 188.081 202.415,188.038 202.972,188.132 203.066 C 188.227 203.160,188.424 202.758,188.571 202.171 C 188.719 201.585,188.762 201.028,188.668 200.934 C 188.573 200.840,188.376 201.242,188.229 201.829 M268.396 205.994 C 269.090 206.871,269.867 207.718,270.123 207.876 C 270.378 208.034,269.893 207.316,269.045 206.281 C 268.197 205.247,267.420 204.400,267.318 204.400 C 267.216 204.400,267.701 205.118,268.396 205.994 M207.800 209.600 C 207.459 210.260,207.269 210.800,207.379 210.800 C 207.489 210.800,207.859 210.260,208.200 209.600 C 208.541 208.940,208.731 208.400,208.621 208.400 C 208.511 208.400,208.141 208.940,207.800 209.600 M274.486 213.547 C 275.869 215.278,277.065 216.638,277.144 216.569 C 277.311 216.426,272.443 210.400,272.161 210.400 C 272.057 210.400,273.104 211.816,274.486 213.547 M183.800 212.400 C 183.459 213.060,183.269 213.600,183.379 213.600 C 183.489 213.600,183.859 213.060,184.200 212.400 C 184.541 211.740,184.731 211.200,184.621 211.200 C 184.511 211.200,184.141 211.740,183.800 212.400 M180.555 217.081 C 179.707 218.116,179.222 218.834,179.477 218.676 C 180.021 218.340,182.555 215.200,182.282 215.200 C 182.180 215.200,181.403 216.047,180.555 217.081 M304.555 216.919 C 305.403 217.953,306.180 218.800,306.282 218.800 C 306.555 218.800,304.021 215.660,303.477 215.324 C 303.222 215.166,303.707 215.884,304.555 216.919 M200.400 219.085 C 198.062 221.463,197.655 221.990,199.098 220.772 C 200.840 219.303,204.333 215.566,203.920 215.614 C 203.854 215.622,202.270 217.184,200.400 219.085 M278.796 218.794 C 279.490 219.671,280.267 220.518,280.523 220.676 C 280.778 220.834,280.293 220.116,279.445 219.081 C 278.597 218.047,277.820 217.200,277.718 217.200 C 277.616 217.200,278.101 217.918,278.796 218.794 M176.400 221.281 C 175.190 222.406,174.740 222.955,175.400 222.500 C 176.539 221.715,179.146 219.180,178.775 219.218 C 178.679 219.228,177.610 220.157,176.400 221.281 M307.821 221.000 C 308.633 221.990,309.370 222.800,309.461 222.800 C 309.774 222.800,306.999 219.231,306.673 219.216 C 306.493 219.207,307.010 220.010,307.821 221.000 M195.200 223.649 C 193.806 224.871,193.805 224.872,195.088 224.019 C 195.796 223.548,196.482 222.991,196.612 222.781 C 196.997 222.157,196.677 222.354,195.200 223.649 M310.006 223.433 C 310.009 223.635,310.656 224.520,311.444 225.400 L 312.876 227.000 311.561 225.200 C 310.837 224.210,310.190 223.325,310.123 223.233 C 310.055 223.142,310.003 223.232,310.006 223.433 M171.500 224.629 C 170.005 225.440,170.096 225.778,171.600 225.000 C 172.260 224.659,172.800 224.294,172.800 224.190 C 172.800 223.932,172.757 223.947,171.500 224.629 M191.896 225.750 C 189.975 226.931,189.438 227.489,191.000 226.681 C 192.254 226.033,193.945 224.826,193.600 224.825 C 193.490 224.825,192.723 225.241,191.896 225.750 M287.162 229.129 C 289.000 231.378,290.694 233.335,290.926 233.478 C 291.158 233.621,289.841 231.897,287.999 229.646 C 286.157 227.396,284.463 225.439,284.234 225.298 C 284.006 225.156,285.323 226.881,287.162 229.129 M163.200 227.600 C 162.396 227.857,162.357 227.923,163.000 227.932 C 163.440 227.938,164.160 227.789,164.600 227.600 C 165.619 227.162,164.568 227.162,163.200 227.600 M113.117 230.041 C 112.082 231.118,111.310 232.000,111.403 232.000 C 111.767 232.000,114.453 229.448,114.829 228.745 C 115.377 227.722,115.264 227.807,113.117 230.041 M316.400 231.541 C 316.400 232.068,326.850 242.840,329.320 244.859 C 330.464 245.794,329.186 244.428,326.479 241.824 C 323.773 239.220,320.398 235.758,318.979 234.132 C 317.561 232.505,316.400 231.339,316.400 231.541 M174.800 232.400 C 173.996 232.657,173.957 232.723,174.600 232.732 C 175.040 232.738,175.760 232.589,176.200 232.400 C 177.219 231.962,176.168 231.962,174.800 232.400 M105.067 233.067 C 103.756 234.378,104.324 234.402,134.700 234.303 L 164.600 234.205 134.900 234.100 C 116.793 234.036,105.200 233.849,105.200 233.620 C 105.200 233.414,105.965 233.177,106.900 233.093 L 108.600 232.940 106.967 232.870 C 106.068 232.831,105.213 232.920,105.067 233.067 M170.600 233.200 C 169.522 233.474,169.502 233.506,170.400 233.513 C 170.950 233.517,171.850 233.376,172.400 233.200 C 173.744 232.769,172.292 232.769,170.600 233.200 M214.052 233.337 C 213.209 234.353,214.201 234.400,236.296 234.400 C 257.187 234.400,258.451 234.360,258.326 233.700 C 258.224 233.165,257.769 232.990,256.397 232.956 L 254.600 232.912 256.300 233.079 C 257.235 233.171,258.000 233.416,258.000 233.623 C 258.000 233.854,249.475 234.000,235.920 234.000 C 216.186 234.000,209.974 233.715,216.200 233.094 L 217.800 232.934 216.149 232.867 C 215.181 232.828,214.314 233.022,214.052 233.337 M165.505 233.883 C 166.002 233.979,166.722 233.975,167.105 233.875 C 167.487 233.775,167.080 233.696,166.200 233.701 C 165.320 233.705,165.007 233.787,165.505 233.883 M292.800 236.125 C 292.800 236.194,293.385 236.779,294.100 237.425 L 295.400 238.600 294.225 237.300 C 293.130 236.088,292.800 235.816,292.800 236.125 M298.058 241.919 C 299.676 243.635,302.350 246.279,304.000 247.795 C 305.650 249.312,304.392 247.908,301.205 244.676 C 294.920 238.303,293.356 236.933,298.058 241.919 M331.744 246.709 C 332.060 247.221,334.400 248.953,334.400 248.675 C 334.400 248.576,333.739 247.991,332.932 247.375 C 332.124 246.759,331.589 246.459,331.744 246.709 M307.324 250.677 C 307.660 251.221,310.800 253.755,310.800 253.482 C 310.800 253.380,309.953 252.603,308.919 251.755 C 307.884 250.907,307.166 250.422,307.324 250.677 M337.200 250.579 C 337.200 250.689,337.740 251.059,338.400 251.400 C 339.060 251.741,339.600 251.931,339.600 251.821 C 339.600 251.711,339.060 251.341,338.400 251.000 C 337.740 250.659,337.200 250.469,337.200 250.579 M340.000 252.196 C 340.000 252.470,342.449 253.684,342.632 253.501 C 342.719 253.414,342.162 253.044,341.395 252.678 C 340.628 252.312,340.000 252.095,340.000 252.196 M311.395 253.992 C 311.682 254.456,315.672 257.207,317.200 257.993 C 318.696 258.764,318.143 258.327,314.470 255.838 C 312.639 254.596,311.255 253.766,311.395 253.992 M353.400 257.200 C 353.840 257.389,354.560 257.538,355.000 257.532 C 355.643 257.523,355.604 257.457,354.800 257.200 C 353.432 256.762,352.381 256.762,353.400 257.200 M358.880 258.011 C 359.914 258.185,360.949 258.445,361.180 258.588 C 361.411 258.730,361.600 258.679,361.600 258.474 C 361.600 258.044,359.596 257.578,358.050 257.647 C 357.444 257.674,357.794 257.828,358.880 258.011 M318.400 258.598 C 318.400 258.867,322.449 260.884,322.629 260.705 C 322.711 260.623,321.793 260.073,320.589 259.482 C 319.385 258.892,318.400 258.494,318.400 258.598 M360.000 260.000 C 359.230 260.422,358.744 260.774,358.920 260.783 C 359.344 260.805,361.600 259.632,361.600 259.390 C 361.600 259.128,361.577 259.137,360.000 260.000 M330.200 263.600 C 330.640 263.789,331.360 263.938,331.800 263.932 C 332.443 263.923,332.404 263.857,331.600 263.600 C 330.232 263.162,329.181 263.162,330.200 263.600 M346.400 264.400 C 345.033 264.688,345.028 264.695,346.200 264.719 C 346.860 264.733,347.760 264.589,348.200 264.400 C 349.162 263.987,348.364 263.987,346.400 264.400 M336.100 264.676 C 336.485 264.776,337.115 264.776,337.500 264.676 C 337.885 264.575,337.570 264.493,336.800 264.493 C 336.030 264.493,335.715 264.575,336.100 264.676 " stroke="none" fill="#6c6c6c" fill-rule="evenodd"></path><path id="path4" d="M158.100 137.876 C 158.485 137.976,159.115 137.976,159.500 137.876 C 159.885 137.775,159.570 137.693,158.800 137.693 C 158.030 137.693,157.715 137.775,158.100 137.876 M214.537 183.000 C 214.539 184.760,214.609 185.430,214.693 184.489 C 214.778 183.549,214.777 182.109,214.691 181.289 C 214.605 180.470,214.536 181.240,214.537 183.000 M190.493 182.800 C 190.493 183.570,190.575 183.885,190.676 183.500 C 190.776 183.115,190.776 182.485,190.676 182.100 C 190.575 181.715,190.493 182.030,190.493 182.800 M298.400 242.600 C 299.146 243.370,299.847 244.000,299.957 244.000 C 300.067 244.000,299.546 243.370,298.800 242.600 C 298.054 241.830,297.353 241.200,297.243 241.200 C 297.133 241.200,297.654 241.830,298.400 242.600 M303.200 247.400 C 303.946 248.170,304.647 248.800,304.757 248.800 C 304.867 248.800,304.346 248.170,303.600 247.400 C 302.854 246.630,302.153 246.000,302.043 246.000 C 301.933 246.000,302.454 246.630,303.200 247.400 M341.700 265.076 C 342.085 265.176,342.715 265.176,343.100 265.076 C 343.485 264.975,343.170 264.893,342.400 264.893 C 341.630 264.893,341.315 264.975,341.700 265.076 " stroke="none" fill="#7c7c7c" fill-rule="evenodd"></path></g></svg>