<svg id="svg" version="1.1" xmlns="http://www.w3.org/2000/svg" xmlns:xlink="http://www.w3.org/1999/xlink" width="400" height="600" viewBox="0, 0, 400,600"><g id="svgg"><path id="path0" d="M68.400 199.984 L 68.400 201.568 65.100 201.684 L 61.800 201.800 61.677 203.500 L 61.554 205.200 56.577 205.200 L 51.600 205.200 51.600 206.800 L 51.600 208.400 48.400 208.400 L 45.200 208.400 45.200 210.000 C 45.200 211.543,45.153 211.600,43.880 211.600 C 42.211 211.600,41.600 212.211,41.600 213.880 L 41.600 215.200 38.400 215.200 L 35.200 215.200 35.200 216.800 L 35.200 218.400 33.400 218.400 L 31.600 218.400 31.600 220.000 L 31.600 221.600 30.000 221.600 L 28.400 221.600 28.400 223.400 L 28.400 225.200 26.800 225.200 L 25.200 225.200 25.200 226.800 L 25.200 228.400 23.400 228.400 C 22.410 228.400,21.621 228.535,21.647 228.700 C 21.994 230.894,21.593 231.600,20.000 231.600 L 18.400 231.600 18.400 235.000 L 18.400 238.400 16.800 238.400 L 15.200 238.400 15.200 240.000 C 15.200 241.543,15.153 241.600,13.880 241.600 C 11.946 241.600,11.600 242.186,11.600 245.456 L 11.600 248.352 10.100 248.476 L 8.600 248.600 8.484 251.900 L 8.368 255.200 6.784 255.200 L 5.200 255.200 5.200 258.400 L 5.200 261.600 3.880 261.600 C 1.798 261.600,1.600 262.077,1.600 267.080 C 1.600 271.333,1.553 271.600,0.800 271.600 C 0.008 271.600,0.000 271.867,0.000 298.200 C 0.000 324.533,0.008 324.800,0.800 324.800 C 1.566 324.800,1.600 325.067,1.600 331.120 C 1.600 338.056,1.708 338.400,3.880 338.400 L 5.200 338.400 5.200 341.600 L 5.200 344.800 6.784 344.800 L 8.368 344.800 8.484 348.100 L 8.600 351.400 10.100 351.524 C 11.558 351.645,11.600 351.692,11.600 353.224 L 11.600 354.800 13.400 354.800 L 15.200 354.800 15.200 358.200 L 15.200 361.600 16.800 361.600 L 18.400 361.600 18.400 363.200 L 18.400 364.800 20.000 364.800 C 21.543 364.800,21.600 364.847,21.600 366.120 C 21.600 367.789,22.211 368.400,23.880 368.400 C 25.153 368.400,25.200 368.457,25.200 370.000 L 25.200 371.600 26.800 371.600 L 28.400 371.600 28.400 373.200 L 28.400 374.800 30.000 374.800 C 31.543 374.800,31.600 374.847,31.600 376.120 C 31.600 377.789,32.211 378.400,33.880 378.400 C 35.153 378.400,35.200 378.457,35.200 380.000 L 35.200 381.600 36.800 381.600 L 38.400 381.600 38.400 383.200 L 38.400 384.800 41.800 384.800 L 45.200 384.800 45.200 386.600 L 45.200 388.400 48.400 388.400 L 51.600 388.400 51.600 390.000 L 51.600 391.600 55.000 391.600 L 58.400 391.600 58.400 393.200 L 58.400 394.800 61.800 394.800 L 65.200 394.800 65.200 396.539 L 65.200 398.279 77.700 398.544 C 105.223 399.129,201.105 398.825,201.363 398.153 C 201.877 396.812,201.623 327.987,201.100 327.074 C 200.264 325.614,200.165 271.737,200.994 269.753 C 201.538 268.451,201.613 264.168,201.605 235.034 L 201.595 201.800 200.698 201.123 C 198.387 199.379,199.226 199.401,136.600 199.371 C 91.854 199.349,76.719 199.224,75.874 198.871 C 75.255 198.612,73.320 198.400,71.574 198.400 L 68.400 198.400 68.400 199.984 M272.800 199.565 L 271.000 199.810 272.510 200.082 C 273.341 200.231,276.654 200.186,279.874 199.982 C 283.093 199.778,287.094 199.698,288.764 199.803 C 290.434 199.909,292.430 199.835,293.200 199.639 C 294.803 199.230,275.766 199.161,272.800 199.565 M300.452 199.386 C 300.799 199.732,318.195 199.922,319.000 199.588 C 319.457 199.398,315.617 199.244,310.033 199.228 C 304.662 199.213,300.350 199.284,300.452 199.386 M398.400 270.400 C 398.400 270.620,398.760 270.800,399.200 270.800 C 399.640 270.800,400.000 270.620,400.000 270.400 C 400.000 270.180,399.640 270.000,399.200 270.000 C 398.760 270.000,398.400 270.180,398.400 270.400 " stroke="none" fill="#894ef9" fill-rule="evenodd"></path><path id="path1" d="M323.834 199.500 C 323.669 199.665,311.894 199.890,297.667 200.000 L 271.800 200.200 269.857 201.342 C 267.961 202.457,267.819 202.478,263.933 202.213 C 259.487 201.911,258.800 202.156,258.800 204.049 L 258.800 205.200 255.400 205.200 L 252.000 205.200 252.000 206.800 L 252.000 208.400 248.600 208.400 L 245.200 208.400 245.200 210.000 C 245.200 211.519,245.138 211.600,243.974 211.600 C 242.426 211.600,241.087 212.293,241.462 212.900 C 242.582 214.713,241.958 215.200,238.513 215.200 L 235.200 215.200 235.200 216.800 L 235.200 218.400 233.400 218.400 L 231.600 218.400 231.600 219.976 C 231.600 221.508,231.558 221.555,230.100 221.676 C 228.644 221.796,228.596 221.850,228.477 223.500 C 228.355 225.192,228.346 225.200,226.777 225.200 C 225.208 225.200,225.200 225.208,225.200 226.777 C 225.200 228.346,225.192 228.355,223.500 228.477 C 221.850 228.596,221.796 228.644,221.676 230.100 C 221.555 231.558,221.508 231.600,219.976 231.600 L 218.400 231.600 218.400 233.400 L 218.400 235.200 216.800 235.200 L 215.200 235.200 215.200 238.400 L 215.200 241.600 213.880 241.600 C 212.211 241.600,211.600 242.211,211.600 243.880 C 211.600 245.153,211.543 245.200,210.000 245.200 L 208.400 245.200 208.400 248.400 L 208.400 251.600 206.800 251.600 L 205.200 251.600 205.200 254.977 L 205.200 258.354 203.500 258.477 L 201.800 258.600 201.590 263.800 C 201.475 266.660,201.160 269.507,200.890 270.126 C 200.213 271.682,200.201 323.440,200.878 325.800 C 201.130 326.680,201.406 329.645,201.492 332.388 C 201.664 337.877,201.869 338.400,203.849 338.400 L 205.200 338.400 205.200 341.600 L 205.200 344.800 206.784 344.800 L 208.368 344.800 208.484 348.100 L 208.600 351.400 210.100 351.524 L 211.600 351.648 211.600 354.544 C 211.600 357.814,211.946 358.400,213.880 358.400 C 215.153 358.400,215.200 358.457,215.200 360.000 L 215.200 361.600 216.800 361.600 L 218.400 361.600 218.400 363.200 C 218.400 364.797,218.403 364.800,219.984 364.800 L 221.568 364.800 221.684 368.100 L 221.800 371.400 223.500 371.523 C 225.192 371.645,225.200 371.654,225.200 373.223 L 225.200 374.800 228.400 374.800 L 231.600 374.800 231.600 376.120 C 231.600 377.789,232.211 378.400,233.880 378.400 C 235.153 378.400,235.200 378.457,235.200 380.000 C 235.200 381.596,235.204 381.600,236.776 381.600 C 238.308 381.600,238.355 381.642,238.476 383.100 L 238.600 384.600 241.900 384.716 L 245.200 384.832 245.200 386.616 L 245.200 388.400 246.776 388.400 C 248.308 388.400,248.355 388.442,248.476 389.900 L 248.600 391.400 251.900 391.516 L 255.200 391.632 255.200 393.216 L 255.200 394.800 260.200 394.800 L 265.200 394.800 265.200 396.600 L 265.200 398.400 271.776 398.400 L 278.352 398.400 278.476 399.900 L 278.600 401.400 300.000 401.400 L 321.400 401.400 321.524 399.900 L 321.648 398.400 327.924 398.353 C 331.376 398.327,334.335 398.327,334.500 398.353 C 334.665 398.379,334.800 397.590,334.800 396.600 L 334.800 394.800 338.200 394.800 L 341.600 394.800 341.600 393.200 L 341.600 391.600 344.757 391.600 C 348.131 391.600,348.400 391.435,348.400 389.367 C 348.400 388.425,348.482 388.400,351.600 388.400 L 354.800 388.400 354.800 386.600 L 354.800 384.800 356.600 384.800 L 358.400 384.800 358.400 383.217 L 358.400 381.634 361.500 381.517 L 364.600 381.400 364.724 379.900 C 364.840 378.501,364.935 378.400,366.144 378.400 C 367.790 378.400,368.400 377.783,368.400 376.120 C 368.400 374.847,368.457 374.800,370.000 374.800 L 371.600 374.800 371.600 373.200 L 371.600 371.600 373.200 371.600 L 374.800 371.600 374.800 370.000 C 374.800 368.457,374.847 368.400,376.120 368.400 C 377.783 368.400,378.400 367.790,378.400 366.144 C 378.400 364.935,378.501 364.840,379.900 364.724 L 381.400 364.600 381.517 361.500 L 381.634 358.400 383.217 358.400 L 384.800 358.400 384.800 356.600 L 384.800 354.800 386.600 354.800 L 388.400 354.800 388.400 351.600 C 388.400 348.482,388.425 348.400,389.367 348.400 C 391.435 348.400,391.600 348.131,391.600 344.757 L 391.600 341.600 393.200 341.600 L 394.800 341.600 394.800 338.200 L 394.800 334.800 396.600 334.800 C 397.590 334.800,398.379 334.665,398.353 334.500 C 397.876 331.483,398.497 323.200,399.200 323.200 C 399.640 323.200,400.000 323.020,400.000 322.800 C 400.000 322.580,399.640 322.400,399.200 322.400 C 398.760 322.400,398.400 322.220,398.400 322.000 C 398.400 321.780,398.760 321.600,399.200 321.600 C 399.991 321.600,400.000 321.333,400.000 298.400 C 400.000 275.467,399.991 275.200,399.200 275.200 C 398.533 275.200,398.400 274.933,398.400 273.600 C 398.400 272.267,398.533 272.000,399.200 272.000 C 399.644 272.000,400.000 271.733,400.000 271.400 C 400.000 271.067,399.644 270.800,399.200 270.800 C 398.452 270.800,398.400 270.533,398.400 266.680 C 398.400 262.105,398.173 261.600,396.120 261.600 L 394.800 261.600 394.800 258.400 L 394.800 255.200 393.216 255.200 L 391.632 255.200 391.516 251.900 L 391.400 248.600 389.900 248.476 L 388.400 248.352 388.400 245.456 C 388.400 242.186,388.054 241.600,386.120 241.600 C 384.847 241.600,384.800 241.543,384.800 240.000 L 384.800 238.400 383.200 238.400 L 381.600 238.400 381.600 236.800 C 381.600 235.203,381.597 235.200,380.016 235.200 L 378.432 235.200 378.316 231.900 L 378.200 228.600 376.500 228.477 C 374.808 228.355,374.800 228.346,374.800 226.777 C 374.800 225.208,374.792 225.200,373.223 225.200 C 371.654 225.200,371.645 225.192,371.523 223.500 L 371.400 221.800 368.100 221.684 L 364.800 221.568 364.800 219.984 C 364.800 218.403,364.797 218.400,363.200 218.400 L 361.600 218.400 361.600 216.800 L 361.600 215.200 360.000 215.200 C 358.457 215.200,358.400 215.153,358.400 213.880 C 358.400 211.946,357.814 211.600,354.544 211.600 L 351.648 211.600 351.524 210.100 L 351.400 208.600 348.100 208.484 L 344.800 208.368 344.800 206.784 L 344.800 205.200 341.358 205.200 L 337.916 205.200 338.069 203.600 C 338.246 201.743,338.397 201.783,331.700 201.950 C 328.247 202.037,328.000 201.990,328.000 201.250 C 328.000 199.667,324.947 198.385,323.834 199.500 M201.200 398.389 C 201.200 398.640,179.376 398.746,139.800 398.689 C 106.030 398.640,78.400 398.743,78.400 398.918 C 78.400 400.468,80.232 401.068,85.779 401.334 C 92.902 401.676,170.305 401.616,174.800 401.265 C 176.670 401.119,181.890 401.141,186.400 401.313 C 190.910 401.486,195.320 401.589,196.200 401.542 C 197.080 401.496,198.385 401.445,199.100 401.429 C 199.815 401.413,200.406 401.220,200.413 401.000 C 200.420 400.780,200.661 400.911,200.950 401.290 C 201.406 401.891,201.483 401.723,201.544 399.990 C 201.583 398.896,201.521 398.000,201.407 398.000 C 201.293 398.000,201.200 398.175,201.200 398.389 " stroke="none" fill="#15beba" fill-rule="evenodd"></path><path id="path2" d="M199.959 95.100 C 199.918 193.006,199.893 198.046,199.458 199.419 C 198.767 201.595,198.842 201.600,230.777 201.600 C 260.546 201.600,266.361 201.373,269.400 200.095 C 270.825 199.495,273.841 199.399,297.018 199.211 C 320.917 199.017,323.124 198.943,324.105 198.300 C 325.041 197.686,325.534 197.651,328.087 198.017 C 333.379 198.776,334.800 198.381,334.800 196.151 L 334.800 194.800 339.800 194.800 L 344.800 194.800 344.800 193.216 L 344.800 191.632 348.100 191.516 L 351.400 191.400 351.524 189.900 L 351.648 188.400 354.544 188.400 C 357.814 188.400,358.400 188.054,358.400 186.120 C 358.400 184.847,358.457 184.800,360.000 184.800 L 361.600 184.800 361.600 183.200 L 361.600 181.600 363.200 181.600 L 364.800 181.600 364.800 180.000 C 364.800 178.457,364.847 178.400,366.120 178.400 C 367.789 178.400,368.400 177.789,368.400 176.120 L 368.400 174.800 371.600 174.800 L 374.800 174.800 374.800 171.600 L 374.800 168.400 376.120 168.400 C 377.789 168.400,378.400 167.789,378.400 166.120 C 378.400 164.847,378.457 164.800,380.000 164.800 L 381.600 164.800 381.600 163.200 L 381.600 161.600 383.200 161.600 L 384.800 161.600 384.800 160.000 C 384.800 158.457,384.847 158.400,386.120 158.400 C 388.054 158.400,388.400 157.814,388.400 154.544 L 388.400 151.648 389.900 151.524 L 391.400 151.400 391.516 148.100 L 391.632 144.800 393.216 144.800 L 394.800 144.800 394.800 141.600 L 394.800 138.400 396.120 138.400 C 398.202 138.400,398.400 137.923,398.400 132.920 C 398.400 128.667,398.447 128.400,399.200 128.400 C 399.992 128.400,400.000 128.133,400.000 100.000 C 400.000 71.867,399.992 71.600,399.200 71.600 C 398.447 71.600,398.400 71.333,398.400 67.080 C 398.400 62.077,398.202 61.600,396.120 61.600 L 394.800 61.600 394.800 58.400 L 394.800 55.200 393.216 55.200 L 391.632 55.200 391.516 51.900 L 391.400 48.600 389.900 48.476 L 388.400 48.352 388.400 45.456 C 388.400 42.186,388.054 41.600,386.120 41.600 C 384.847 41.600,384.800 41.543,384.800 40.000 C 384.800 38.403,384.797 38.400,383.216 38.400 L 381.632 38.400 381.516 35.100 L 381.400 31.800 379.923 31.677 C 378.535 31.562,378.438 31.465,378.323 30.077 C 378.204 28.648,378.145 28.596,376.500 28.477 C 374.808 28.355,374.800 28.346,374.800 26.777 C 374.800 25.208,374.792 25.200,373.223 25.200 C 371.654 25.200,371.645 25.192,371.523 23.500 C 371.404 21.855,371.352 21.796,369.923 21.677 C 368.535 21.562,368.438 21.465,368.323 20.077 L 368.200 18.600 364.900 18.484 L 361.600 18.368 361.600 16.784 C 361.600 15.203,361.597 15.200,360.000 15.200 C 358.457 15.200,358.400 15.153,358.400 13.880 C 358.400 11.946,357.814 11.600,354.544 11.600 L 351.648 11.600 351.524 10.100 L 351.400 8.600 348.100 8.484 L 344.800 8.368 344.800 6.784 L 344.800 5.200 341.600 5.200 L 338.400 5.200 338.400 3.880 C 338.400 1.798,337.923 1.600,332.920 1.600 C 328.667 1.600,328.400 1.553,328.400 0.800 C 328.400 0.003,328.133 0.000,264.200 0.000 L 200.000 0.000 199.959 95.100 M62.176 2.174 C 60.355 4.239,63.424 7.132,66.015 5.792 C 67.498 5.025,67.730 2.712,66.396 1.998 C 65.417 1.474,62.693 1.587,62.176 2.174 M55.568 5.900 C 55.118 6.496,55.122 6.525,55.599 6.100 C 55.908 5.825,56.439 5.614,56.780 5.632 C 57.192 5.653,57.232 5.731,56.900 5.865 C 56.625 5.976,56.400 6.254,56.400 6.482 C 56.400 6.735,56.634 6.704,56.996 6.404 C 57.323 6.132,57.493 5.750,57.372 5.555 C 57.016 4.979,56.138 5.148,55.568 5.900 M42.099 12.232 C 41.804 12.548,41.793 12.833,42.065 13.105 C 42.338 13.378,42.334 13.594,42.052 13.768 C 41.318 14.222,42.027 15.147,43.476 15.625 C 45.091 16.158,45.725 15.753,46.155 13.912 C 46.578 12.102,43.436 10.800,42.099 12.232 M31.812 18.721 C 31.387 19.146,31.614 19.639,32.100 19.347 C 32.440 19.143,32.424 19.263,32.051 19.723 C 31.622 20.252,31.614 20.400,32.012 20.400 C 32.293 20.400,32.107 20.760,31.600 21.200 C 30.735 21.950,30.987 22.285,32.200 22.001 C 32.420 21.949,33.214 21.883,33.965 21.854 C 35.319 21.800,35.878 20.596,35.310 18.955 C 35.157 18.512,32.218 18.316,31.812 18.721 M28.639 21.894 C 28.507 22.026,28.406 22.418,28.413 22.767 C 28.424 23.319,28.492 23.312,28.947 22.714 C 29.294 22.257,29.601 22.161,29.867 22.427 C 30.133 22.693,30.267 22.648,30.267 22.293 C 30.267 21.751,29.074 21.459,28.639 21.894 M21.949 28.500 C 21.625 29.135,21.831 30.267,22.271 30.267 C 22.641 30.267,22.693 30.133,22.427 29.867 C 22.161 29.601,22.257 29.294,22.714 28.947 C 23.360 28.456,23.360 28.425,22.700 28.413 C 22.315 28.406,21.977 28.445,21.949 28.500 M21.093 31.708 C 20.681 32.217,20.400 32.348,20.400 32.032 C 20.400 31.599,20.276 31.603,19.723 32.051 C 19.149 32.517,19.097 32.516,19.379 32.048 C 19.609 31.666,19.540 31.553,19.156 31.681 C 17.742 32.153,18.479 35.400,20.000 35.400 C 21.965 35.400,22.266 35.071,22.188 33.004 C 22.105 30.777,21.974 30.622,21.093 31.708 M12.200 42.140 C 10.880 43.657,11.830 46.000,13.765 46.000 C 15.579 46.000,16.078 45.316,15.580 43.513 C 15.181 42.067,14.236 41.294,13.777 42.037 C 13.619 42.292,13.359 42.300,13.064 42.060 C 12.766 41.815,12.457 41.844,12.200 42.140 M10.100 50.256 C 9.034 51.407,8.995 51.600,9.824 51.600 C 10.167 51.600,10.349 51.440,10.228 51.245 C 9.956 50.805,10.975 49.908,11.337 50.270 C 11.482 50.415,11.600 50.233,11.600 49.867 C 11.600 48.977,11.185 49.085,10.100 50.256 M2.177 62.158 C 1.466 62.937,1.483 65.825,2.202 66.545 C 4.155 68.498,6.518 66.323,5.762 63.267 C 5.381 61.723,3.192 61.047,2.177 62.158 M1.710 136.000 C 1.677 136.440,1.780 136.800,1.940 136.800 C 2.099 136.800,2.257 136.440,2.290 136.000 C 2.323 135.560,2.220 135.200,2.060 135.200 C 1.901 135.200,1.743 135.560,1.710 136.000 M1.675 137.625 C 1.771 137.914,2.086 138.229,2.375 138.325 C 2.675 138.425,2.825 138.275,2.725 137.975 C 2.629 137.686,2.314 137.371,2.025 137.275 C 1.725 137.175,1.575 137.325,1.675 137.625 M19.122 161.497 C 17.888 161.775,18.308 164.699,19.583 164.705 C 21.264 164.712,22.000 164.096,22.000 162.682 C 22.000 161.356,21.204 161.028,19.122 161.497 M40.400 181.195 C 39.850 181.350,39.103 181.433,38.740 181.380 C 38.191 181.299,38.137 181.481,38.418 182.464 C 38.605 183.114,38.671 183.872,38.565 184.148 C 38.421 184.523,39.161 184.658,41.486 184.680 C 43.199 184.697,44.303 184.631,43.940 184.534 C 43.566 184.433,43.170 183.764,43.023 182.983 C 42.727 181.403,41.831 180.792,40.400 181.195 M55.343 193.005 C 54.910 194.134,56.760 195.436,57.377 194.437 C 57.500 194.238,57.196 194.163,56.701 194.272 C 56.047 194.415,55.949 194.364,56.343 194.085 C 56.687 193.841,56.736 193.608,56.477 193.448 C 56.252 193.309,55.961 193.421,55.830 193.698 C 55.698 193.974,55.666 193.795,55.758 193.300 C 55.948 192.278,55.692 192.096,55.343 193.005 M65.900 194.557 C 65.100 195.164,64.930 197.786,65.662 198.238 C 65.975 198.432,66.015 198.343,65.785 197.962 C 65.502 197.492,65.552 197.485,66.093 197.924 C 67.601 199.146,71.533 197.687,71.285 195.996 C 71.027 194.240,67.544 193.309,65.900 194.557 " stroke="none" fill="#fb7237" fill-rule="evenodd"></path><path id="path3" d="M71.600 0.800 C 71.600 1.525,71.329 1.601,68.700 1.612 C 66.535 1.621,65.977 1.728,66.500 2.032 C 67.727 2.746,67.428 5.062,66.015 5.792 C 64.440 6.607,61.563 5.633,61.806 4.368 C 61.985 3.439,60.888 3.306,60.539 4.215 C 60.409 4.553,59.765 5.108,59.108 5.448 C 58.450 5.788,58.018 5.894,58.148 5.685 C 58.284 5.465,57.709 5.321,56.792 5.345 C 55.916 5.368,55.200 5.535,55.200 5.717 C 55.200 5.899,55.425 5.921,55.700 5.766 C 55.975 5.612,55.496 6.147,54.636 6.955 C 53.286 8.224,52.768 8.443,50.836 8.563 C 48.500 8.707,48.580 8.629,48.443 10.900 C 48.408 11.462,48.027 11.600,46.511 11.600 C 44.686 11.600,44.652 11.621,45.513 12.224 C 46.472 12.896,46.415 14.450,45.391 15.545 C 44.805 16.172,42.206 15.534,41.857 14.678 C 41.713 14.323,41.655 14.328,41.632 14.700 C 41.613 15.000,41.034 15.200,40.187 15.200 C 39.262 15.200,38.690 15.421,38.529 15.840 C 38.175 16.764,36.454 18.400,35.837 18.400 C 35.478 18.400,35.324 18.940,35.352 20.100 C 35.393 21.765,35.365 21.802,33.997 21.904 C 31.691 22.076,31.437 22.073,30.502 21.855 C 29.518 21.627,28.610 22.747,28.604 24.200 C 28.601 24.853,28.291 25.022,26.922 25.122 C 25.260 25.243,25.243 25.260,25.122 26.922 C 25.022 28.291,24.853 28.601,24.200 28.604 C 22.172 28.613,21.247 30.057,22.239 31.663 C 22.423 31.961,22.346 32.014,22.022 31.814 C 21.642 31.579,21.615 31.685,21.909 32.252 C 22.323 33.048,22.325 34.351,21.912 35.018 C 21.775 35.240,20.929 35.412,20.031 35.400 C 18.969 35.386,18.400 35.556,18.400 35.886 C 18.400 36.165,17.862 36.907,17.205 37.535 C 16.548 38.163,16.137 38.804,16.293 38.960 C 16.448 39.115,16.266 39.124,15.888 38.978 C 15.316 38.759,15.200 38.957,15.200 40.157 C 15.200 41.042,15.006 41.602,14.700 41.606 C 14.306 41.611,14.307 41.680,14.707 41.934 C 15.498 42.436,16.066 44.839,15.543 45.469 C 14.890 46.255,12.522 46.141,12.032 45.300 C 11.716 44.757,11.622 45.053,11.612 46.620 L 11.600 48.639 10.148 48.634 L 8.696 48.628 8.558 50.886 C 8.415 53.221,7.142 55.200,5.782 55.200 C 5.042 55.200,4.968 60.321,5.669 62.944 C 6.553 66.247,4.290 68.633,2.229 66.571 C 1.657 66.000,1.600 66.073,1.600 67.371 C 1.600 68.533,1.451 68.800,0.800 68.800 C 0.007 68.800,0.000 69.067,0.000 100.000 C 0.000 130.933,0.007 131.200,0.800 131.200 C 1.493 131.200,1.600 131.467,1.600 133.200 C 1.600 134.300,1.780 135.200,2.000 135.200 C 2.220 135.200,2.400 135.391,2.400 135.624 C 2.400 135.857,2.175 135.912,1.900 135.747 C 1.560 135.543,1.576 135.663,1.949 136.123 C 2.307 136.564,2.342 136.800,2.049 136.800 C 1.629 136.800,2.764 138.274,3.200 138.295 C 5.335 138.400,5.200 138.177,5.200 141.600 L 5.200 144.800 6.800 144.800 L 8.400 144.800 8.445 146.500 C 8.578 151.599,8.500 151.373,10.126 151.367 L 11.600 151.361 11.648 153.380 C 11.771 158.623,11.618 158.200,13.395 158.204 C 14.679 158.207,15.014 158.363,15.111 159.004 C 15.536 161.818,15.335 161.683,18.816 161.495 L 22.000 161.324 22.000 162.675 C 22.000 163.538,21.771 164.113,21.366 164.268 C 20.924 164.438,20.873 164.598,21.196 164.797 C 21.450 164.955,21.698 165.785,21.747 166.642 C 21.796 167.509,22.049 168.222,22.317 168.250 C 22.583 168.278,23.340 168.322,24.000 168.350 L 25.200 168.400 25.200 171.584 L 25.200 174.768 28.497 174.884 L 31.794 175.000 31.797 176.600 C 31.800 178.199,31.801 178.200,33.400 178.202 C 34.914 178.204,35.007 178.274,35.126 179.509 C 35.206 180.339,35.413 180.716,35.694 180.542 C 35.978 180.366,36.046 180.503,35.884 180.924 C 35.641 181.560,40.475 181.658,41.102 181.031 C 41.601 180.533,42.789 181.734,43.021 182.971 C 43.208 183.966,43.535 184.397,44.238 184.574 C 45.167 184.807,45.333 185.267,45.346 187.640 C 45.348 188.101,45.691 188.261,46.575 188.212 C 48.447 188.108,48.691 188.318,48.599 189.950 C 48.516 191.430,48.542 191.460,49.957 191.476 C 54.552 191.526,56.156 191.645,55.800 191.906 C 54.686 192.725,55.289 194.640,56.661 194.640 C 57.398 194.640,58.000 194.500,58.000 194.330 C 58.000 194.159,58.462 194.195,59.026 194.410 C 60.372 194.922,65.882 194.914,66.200 194.400 C 66.336 194.180,66.950 194.000,67.564 194.000 C 71.892 194.000,72.928 197.459,68.800 198.129 C 68.250 198.218,69.363 198.316,71.274 198.346 C 73.185 198.375,75.255 198.612,75.874 198.870 C 76.718 199.223,91.964 199.350,136.800 199.380 C 180.291 199.409,196.947 199.544,197.871 199.874 C 198.948 200.258,199.192 200.226,199.471 199.664 C 199.652 199.299,199.850 154.225,199.911 99.500 L 200.022 0.000 135.811 0.000 C 71.867 0.000,71.600 0.003,71.600 0.800 M380.601 7.599 C 379.865 8.412,379.868 8.445,380.725 9.303 L 381.600 10.178 382.494 9.283 C 383.205 8.573,383.299 8.246,382.952 7.694 C 382.317 6.687,381.458 6.652,380.601 7.599 M11.600 49.867 C 11.600 50.233,11.482 50.415,11.337 50.270 C 10.975 49.908,9.956 50.805,10.228 51.245 C 10.349 51.440,10.167 51.600,9.824 51.600 C 8.995 51.600,9.034 51.407,10.100 50.256 C 11.185 49.085,11.600 48.977,11.600 49.867 M391.600 54.400 C 391.600 54.933,391.867 55.200,392.400 55.200 C 393.307 55.200,393.425 54.785,392.720 54.080 C 392.015 53.375,391.600 53.493,391.600 54.400 M398.400 70.800 C 398.400 71.333,398.667 71.600,399.200 71.600 C 399.733 71.600,400.000 71.333,400.000 70.800 C 400.000 70.267,399.733 70.000,399.200 70.000 C 398.667 70.000,398.400 70.267,398.400 70.800 M334.800 195.870 L 334.800 196.939 335.800 196.000 C 336.350 195.483,336.800 195.002,336.800 194.930 C 336.800 194.859,336.350 194.800,335.800 194.800 C 334.983 194.800,334.800 194.995,334.800 195.870 M324.600 197.999 C 324.444 198.252,325.348 198.400,327.043 198.400 C 328.523 198.400,329.658 198.335,329.567 198.256 C 329.113 197.863,324.822 197.641,324.600 197.999 M253.690 202.071 C 253.996 202.987,255.093 203.387,255.766 202.828 C 256.770 201.995,256.513 201.600,254.967 201.600 C 254.044 201.600,253.589 201.768,253.690 202.071 " stroke="none" fill="#fb3635" fill-rule="evenodd"></path><path id="path4" d="M338.400 4.400 C 338.400 4.938,338.667 5.200,339.214 5.200 C 339.904 5.200,339.963 5.078,339.600 4.400 C 339.365 3.960,338.998 3.600,338.786 3.600 C 338.574 3.600,338.400 3.960,338.400 4.400 M53.200 7.090 C 52.084 8.509,52.817 8.747,54.161 7.402 C 55.353 6.211,55.423 6.000,54.629 6.000 C 54.315 6.000,53.672 6.491,53.200 7.090 M344.800 7.200 C 344.800 8.309,344.908 8.400,346.224 8.400 C 347.707 8.400,347.741 8.172,346.477 6.700 C 345.546 5.615,344.800 5.837,344.800 7.200 M46.800 10.000 C 45.681 11.119,45.802 11.600,47.200 11.600 C 48.267 11.600,48.400 11.467,48.400 10.400 C 48.400 9.002,47.919 8.881,46.800 10.000 M30.587 10.814 C 29.870 11.607,29.873 11.650,30.692 12.470 C 32.171 13.949,33.987 12.333,32.587 10.785 C 31.698 9.803,31.500 9.806,30.587 10.814 M351.600 10.800 C 351.600 11.353,351.867 11.600,352.462 11.600 C 353.299 11.600,353.303 11.576,352.600 10.800 C 352.202 10.360,351.814 10.000,351.738 10.000 C 351.662 10.000,351.600 10.360,351.600 10.800 M357.900 12.017 C 358.175 12.316,358.400 13.154,358.400 13.880 C 358.400 15.090,358.503 15.200,359.643 15.200 C 360.612 15.200,360.832 15.061,360.643 14.567 C 360.509 14.219,360.400 13.881,360.400 13.815 C 360.400 13.749,359.725 13.195,358.900 12.585 C 358.075 11.974,357.625 11.719,357.900 12.017 M40.400 14.400 C 40.037 15.078,40.096 15.200,40.786 15.200 C 41.333 15.200,41.600 14.938,41.600 14.400 C 41.600 13.960,41.426 13.600,41.214 13.600 C 41.002 13.600,40.635 13.960,40.400 14.400 M36.400 16.400 C 35.566 17.234,35.322 18.400,35.982 18.400 C 36.192 18.400,36.822 17.942,37.382 17.382 C 37.942 16.822,38.400 16.192,38.400 15.982 C 38.400 15.322,37.234 15.566,36.400 16.400 M361.600 17.200 C 361.600 18.267,361.733 18.400,362.800 18.400 C 364.179 18.400,364.377 17.665,363.269 16.662 C 362.175 15.673,361.600 15.858,361.600 17.200 M16.400 36.400 C 15.566 37.234,15.322 38.400,15.982 38.400 C 16.192 38.400,16.822 37.942,17.382 37.382 C 17.942 36.822,18.400 36.192,18.400 35.982 C 18.400 35.322,17.234 35.566,16.400 36.400 M381.600 37.200 C 381.600 38.267,381.733 38.400,382.800 38.400 C 384.179 38.400,384.377 37.665,383.269 36.662 C 382.175 35.673,381.600 35.858,381.600 37.200 M14.130 39.455 C 13.871 39.561,13.168 40.311,12.567 41.123 C 11.966 41.936,11.719 42.375,12.017 42.100 C 12.316 41.825,13.154 41.600,13.880 41.600 C 15.080 41.600,15.200 41.491,15.200 40.400 C 15.200 39.214,15.048 39.080,14.130 39.455 M384.800 40.786 C 384.800 41.333,385.062 41.600,385.600 41.600 C 386.040 41.600,386.400 41.426,386.400 41.214 C 386.400 41.002,386.040 40.635,385.600 40.400 C 384.922 40.037,384.800 40.096,384.800 40.786 M388.400 47.600 C 388.400 48.153,388.667 48.400,389.262 48.400 C 390.099 48.400,390.103 48.376,389.400 47.600 C 389.002 47.160,388.614 46.800,388.538 46.800 C 388.462 46.800,388.400 47.160,388.400 47.600 M7.090 53.200 C 6.491 53.672,6.000 54.315,6.000 54.629 C 6.000 55.423,6.211 55.353,7.402 54.161 C 8.747 52.817,8.509 52.084,7.090 53.200 M391.600 52.782 C 391.600 53.278,393.522 55.200,394.018 55.200 C 394.593 55.200,394.478 54.289,393.777 53.289 C 393.161 52.409,391.600 52.045,391.600 52.782 M398.400 69.400 C 398.400 69.733,398.756 70.000,399.200 70.000 C 399.644 70.000,400.000 69.733,400.000 69.400 C 400.000 69.067,399.644 68.800,399.200 68.800 C 398.756 68.800,398.400 69.067,398.400 69.400 M3.600 138.786 C 3.600 138.998,3.960 139.365,4.400 139.600 C 5.078 139.963,5.200 139.904,5.200 139.214 C 5.200 138.667,4.938 138.400,4.400 138.400 C 3.960 138.400,3.600 138.574,3.600 138.786 M6.800 145.120 C 6.800 145.534,7.666 146.400,8.080 146.400 C 8.256 146.400,8.400 146.040,8.400 145.600 C 8.400 145.067,8.133 144.800,7.600 144.800 C 7.160 144.800,6.800 144.944,6.800 145.120 M23.600 168.786 C 23.600 168.998,23.960 169.365,24.400 169.600 C 25.078 169.963,25.200 169.904,25.200 169.214 C 25.200 168.667,24.938 168.400,24.400 168.400 C 23.960 168.400,23.600 168.574,23.600 168.786 M335.933 195.900 C 335.375 196.505,334.807 197.315,334.671 197.700 C 334.455 198.315,333.831 198.400,329.513 198.400 C 325.282 198.401,319.067 199.200,318.442 199.824 C 318.086 200.180,321.600 199.986,323.517 199.543 C 326.243 198.914,327.561 199.304,327.866 200.830 L 328.108 202.038 331.754 201.948 C 338.392 201.784,338.245 201.745,338.069 203.600 L 337.916 205.200 339.790 205.200 L 341.664 205.200 341.383 203.900 C 341.229 203.185,340.315 201.753,339.352 200.717 C 337.763 199.010,337.600 198.646,337.600 196.817 C 337.600 194.506,337.349 194.368,335.933 195.900 M340.400 195.600 C 340.879 196.495,341.992 196.648,342.720 195.920 C 343.548 195.092,343.253 194.800,341.586 194.800 C 340.096 194.800,340.005 194.861,340.400 195.600 M293.400 199.587 C 292.687 199.776,295.597 199.925,300.567 199.953 C 305.168 199.979,308.858 199.933,308.767 199.852 C 308.403 199.529,294.523 199.290,293.400 199.587 M269.343 200.194 C 267.574 200.941,262.971 201.600,259.520 201.600 C 257.026 201.600,256.518 201.718,256.093 202.400 C 255.818 202.840,255.326 203.200,255.000 203.200 C 254.674 203.200,254.182 202.840,253.907 202.400 C 253.435 201.645,248.800 201.124,248.800 201.826 C 248.800 203.663,252.022 205.200,255.875 205.200 L 258.800 205.200 258.800 204.049 C 258.800 202.156,259.487 201.911,263.933 202.213 C 267.744 202.472,267.990 202.439,269.692 201.442 C 270.670 200.869,271.889 200.400,272.402 200.400 C 273.595 200.400,273.332 200.177,271.800 199.889 C 271.140 199.765,270.035 199.903,269.343 200.194 M284.105 199.887 C 284.714 199.979,285.614 199.977,286.105 199.882 C 286.597 199.787,286.100 199.711,285.000 199.714 C 283.900 199.717,283.497 199.795,284.105 199.887 M201.600 202.400 C 201.600 203.307,202.015 203.425,202.720 202.720 C 203.425 202.015,203.307 201.600,202.400 201.600 C 201.867 201.600,201.600 201.867,201.600 202.400 M249.306 205.526 C 249.034 205.699,248.697 206.416,248.556 207.120 L 248.300 208.400 250.150 208.400 L 252.000 208.400 252.000 206.800 C 252.000 205.153,250.792 204.582,249.306 205.526 M344.800 206.800 L 344.800 208.400 346.400 208.400 C 348.076 208.400,348.133 208.338,347.754 206.925 C 347.569 206.234,345.882 205.200,344.940 205.200 C 344.863 205.200,344.800 205.920,344.800 206.800 M244.300 210.432 C 243.360 210.979,243.413 211.600,244.400 211.600 C 244.933 211.600,245.200 211.333,245.200 210.800 C 245.200 209.882,245.226 209.893,244.300 210.432 M240.480 211.995 C 238.884 212.373,238.959 212.296,238.615 213.900 L 238.336 215.200 240.081 215.200 C 241.858 215.200,242.364 214.360,241.465 212.904 C 241.310 212.654,241.502 212.264,241.892 212.037 C 242.706 211.563,242.348 211.552,240.480 211.995 M364.800 220.400 C 364.800 221.507,364.910 221.600,366.214 221.600 C 367.775 221.600,367.665 220.491,366.017 219.609 C 364.901 219.012,364.800 219.077,364.800 220.400 M378.400 233.786 C 378.400 235.090,378.493 235.200,379.600 235.200 C 380.923 235.200,380.988 235.099,380.391 233.983 C 379.509 232.335,378.400 232.225,378.400 233.786 M398.400 269.600 C 398.400 269.820,398.760 270.000,399.200 270.000 C 399.640 270.000,400.000 269.820,400.000 269.600 C 400.000 269.380,399.640 269.200,399.200 269.200 C 398.760 269.200,398.400 269.380,398.400 269.600 M398.400 273.600 C 398.400 274.933,398.533 275.200,399.200 275.200 C 399.867 275.200,400.000 274.933,400.000 273.600 C 400.000 272.267,399.867 272.000,399.200 272.000 C 398.533 272.000,398.400 272.267,398.400 273.600 M398.400 322.000 C 398.400 322.220,398.760 322.400,399.200 322.400 C 399.640 322.400,400.000 322.220,400.000 322.000 C 400.000 321.780,399.640 321.600,399.200 321.600 C 398.760 321.600,398.400 321.780,398.400 322.000 M398.400 323.800 C 398.400 324.133,398.756 324.400,399.200 324.400 C 399.644 324.400,400.000 324.133,400.000 323.800 C 400.000 323.467,399.644 323.200,399.200 323.200 C 398.756 323.200,398.400 323.467,398.400 323.800 M203.600 338.786 C 203.600 338.998,203.960 339.365,204.400 339.600 C 205.078 339.963,205.200 339.904,205.200 339.214 C 205.200 338.667,204.938 338.400,204.400 338.400 C 203.960 338.400,203.600 338.574,203.600 338.786 M381.600 359.262 C 381.600 360.099,381.624 360.103,382.400 359.400 C 382.840 359.002,383.200 358.614,383.200 358.538 C 383.200 358.462,382.840 358.400,382.400 358.400 C 381.847 358.400,381.600 358.667,381.600 359.262 M390.430 364.345 C 389.917 365.302,390.759 366.545,391.784 366.343 C 392.904 366.123,393.462 364.997,392.828 364.234 C 392.118 363.378,390.917 363.434,390.430 364.345 M360.587 390.814 C 359.870 391.607,359.873 391.650,360.692 392.470 C 362.171 393.949,363.987 392.333,362.587 390.785 C 361.698 389.803,361.500 389.806,360.587 390.814 M67.600 398.797 C 67.050 398.975,65.317 399.138,63.748 399.160 C 60.955 399.199,60.868 399.232,59.534 400.754 C 58.785 401.609,57.818 402.374,57.386 402.454 C 56.954 402.534,56.330 403.181,56.000 403.891 C 55.455 405.063,55.234 405.184,53.600 405.193 C 51.552 405.204,49.408 406.316,49.009 407.572 C 48.795 408.245,48.414 408.400,46.973 408.400 L 45.200 408.400 45.200 410.000 C 45.200 411.568,45.171 411.600,43.773 411.600 C 42.196 411.600,39.796 413.152,39.389 414.436 C 39.193 415.052,38.764 415.200,37.173 415.200 L 35.200 415.200 35.200 416.800 L 35.200 418.400 33.400 418.400 L 31.600 418.400 31.600 420.000 C 31.600 421.635,31.125 421.921,28.894 421.628 C 28.615 421.592,28.412 421.706,28.441 421.881 C 28.846 424.285,28.393 425.200,26.800 425.200 L 25.200 425.200 25.200 426.800 C 25.200 428.403,24.524 428.751,21.964 428.469 C 21.834 428.454,21.704 429.089,21.674 429.878 C 21.608 431.637,21.637 431.608,19.878 431.674 C 19.089 431.704,18.454 431.834,18.469 431.964 C 18.751 434.524,18.403 435.200,16.800 435.200 L 15.200 435.200 15.200 437.454 C 15.200 439.820,14.228 441.346,12.514 441.671 C 11.987 441.771,11.768 442.252,11.677 443.503 C 11.555 445.191,11.546 445.200,9.977 445.200 L 8.400 445.200 8.400 448.376 L 8.400 451.552 6.900 451.676 L 5.400 451.800 5.285 455.768 C 5.163 459.954,4.538 461.286,2.514 461.672 C 1.936 461.782,1.777 462.282,1.681 464.304 C 1.577 466.472,1.459 466.800,0.781 466.800 C 0.013 466.800,0.000 467.327,0.000 498.800 C 0.000 530.533,0.007 530.800,0.800 530.800 C 1.482 530.800,1.600 531.067,1.600 532.613 C 1.600 533.978,1.773 534.486,2.300 534.671 C 4.618 535.486,5.200 536.732,5.200 540.875 C 5.200 544.043,5.312 544.800,5.782 544.800 C 7.248 544.800,8.400 546.744,8.400 549.218 L 8.400 551.600 9.948 551.600 L 11.497 551.600 11.771 554.022 C 12.065 556.619,12.977 558.000,14.400 558.000 C 15.081 558.000,15.200 558.267,15.200 559.800 C 15.200 561.108,15.359 561.600,15.782 561.600 C 16.536 561.600,18.400 563.464,18.400 564.218 C 18.400 564.538,18.694 564.800,19.054 564.800 C 19.836 564.800,21.480 566.484,21.673 567.481 C 21.748 567.872,22.128 568.252,22.519 568.327 C 23.516 568.520,25.200 570.164,25.200 570.946 C 25.200 571.442,25.586 571.600,26.800 571.600 L 28.400 571.600 28.400 573.200 C 28.400 574.796,28.404 574.800,29.977 574.800 C 31.546 574.800,31.555 574.808,31.677 576.500 C 31.799 578.192,31.808 578.201,33.500 578.323 C 35.192 578.445,35.200 578.454,35.200 580.023 L 35.200 581.600 37.530 581.600 C 39.937 581.600,41.087 582.285,41.728 584.100 C 41.907 584.608,42.411 584.800,43.564 584.800 C 45.149 584.800,45.154 584.806,45.277 586.500 L 45.400 588.200 48.500 588.317 C 51.802 588.441,51.959 588.582,51.628 591.106 C 51.592 591.385,51.706 591.588,51.881 591.559 C 52.056 591.529,53.595 591.527,55.300 591.553 L 58.400 591.600 58.400 593.200 L 58.400 594.800 63.400 594.800 L 68.400 594.800 68.400 596.600 L 68.400 598.400 72.600 598.400 C 76.533 598.400,76.800 598.451,76.800 599.200 C 76.800 599.991,77.067 600.000,100.000 600.000 C 122.933 600.000,123.200 599.991,123.200 599.200 C 123.200 598.462,127.976 597.961,131.106 598.372 C 131.385 598.408,131.588 598.294,131.559 598.119 C 131.529 597.944,131.527 597.125,131.553 596.300 L 131.600 594.800 136.600 594.800 L 141.600 594.800 141.600 593.200 L 141.600 591.600 144.700 591.553 C 146.405 591.527,147.944 591.529,148.119 591.559 C 148.294 591.588,148.408 591.385,148.372 591.106 C 148.041 588.582,148.198 588.441,151.500 588.317 L 154.600 588.200 154.723 586.500 C 154.846 584.806,154.851 584.800,156.436 584.800 C 157.589 584.800,158.093 584.608,158.272 584.100 C 158.913 582.285,160.063 581.600,162.470 581.600 L 164.800 581.600 164.800 580.000 C 164.800 578.620,164.924 578.394,165.700 578.357 C 168.414 578.229,168.229 578.414,168.357 575.700 C 168.394 574.924,168.620 574.800,170.000 574.800 L 171.600 574.800 171.600 573.200 L 171.600 571.600 173.200 571.600 L 174.800 571.600 174.800 570.000 C 174.800 568.620,174.924 568.394,175.700 568.357 C 178.414 568.229,178.229 568.414,178.357 565.700 C 178.394 564.924,178.620 564.800,180.000 564.800 L 181.600 564.800 181.600 563.200 L 181.600 561.600 183.200 561.600 L 184.800 561.600 184.800 559.590 C 184.800 557.810,184.915 557.536,185.807 557.197 C 186.361 556.987,186.980 556.379,187.182 555.846 C 187.385 555.313,187.742 554.760,187.975 554.615 C 188.209 554.471,188.400 553.733,188.400 552.976 C 188.400 551.637,188.443 551.600,190.000 551.600 L 191.600 551.600 191.600 549.218 C 191.600 546.744,192.752 544.800,194.218 544.800 C 194.684 544.800,194.800 544.082,194.800 541.190 C 194.800 537.701,194.834 537.567,195.807 537.197 C 196.361 536.987,196.980 536.379,197.182 535.846 C 197.385 535.313,197.742 534.760,197.975 534.615 C 198.218 534.465,198.400 532.974,198.400 531.137 C 198.400 528.165,198.483 527.837,199.500 526.809 C 200.105 526.198,200.825 525.413,201.100 525.066 C 201.493 524.569,201.600 515.046,201.600 480.513 C 201.600 437.026,201.608 436.588,202.400 436.093 C 203.416 435.458,203.421 434.600,202.412 433.894 C 201.651 433.361,201.623 432.783,201.587 417.138 C 201.555 403.334,201.464 400.933,200.975 400.933 C 200.659 400.933,200.400 401.038,200.400 401.167 C 200.400 401.295,199.815 401.413,199.100 401.429 C 198.385 401.445,197.080 401.496,196.200 401.542 C 195.320 401.589,190.910 401.486,186.400 401.313 C 181.890 401.141,176.310 401.143,174.000 401.318 C 171.690 401.492,149.812 401.582,125.382 401.518 C 76.962 401.389,79.331 401.505,78.614 399.245 C 78.347 398.403,69.880 398.059,67.600 398.797 M-0.000 418.375 C 0.000 420.275,1.275 420.665,2.621 419.177 C 3.602 418.093,2.983 417.046,1.260 416.875 C 0.033 416.753,-0.000 416.792,-0.000 418.375 M390.430 454.345 C 389.917 455.302,390.759 456.545,391.784 456.343 C 392.904 456.123,393.462 454.997,392.828 454.234 C 392.118 453.378,390.917 453.434,390.430 454.345 M330.430 474.345 C 329.917 475.302,330.759 476.545,331.784 476.343 C 332.904 476.123,333.462 474.997,332.828 474.234 C 332.118 473.378,330.917 473.434,330.430 474.345 M280.430 484.345 C 279.917 485.302,280.759 486.545,281.784 486.343 C 282.904 486.123,283.462 484.997,282.828 484.234 C 282.118 483.378,280.917 483.434,280.430 484.345 M220.601 497.599 C 219.865 498.412,219.868 498.445,220.725 499.303 L 221.600 500.178 222.494 499.283 C 223.205 498.573,223.299 498.246,222.952 497.694 C 222.317 496.687,221.458 496.652,220.601 497.599 M270.601 507.599 C 269.865 508.412,269.868 508.445,270.725 509.303 L 271.600 510.178 272.494 509.283 C 273.205 508.573,273.299 508.246,272.952 507.694 C 272.317 506.687,271.458 506.652,270.601 507.599 M350.601 537.599 C 349.865 538.412,349.868 538.445,350.725 539.303 L 351.600 540.178 352.494 539.283 C 353.205 538.573,353.299 538.246,352.952 537.694 C 352.317 536.687,351.458 536.652,350.601 537.599 M280.601 557.599 C 279.865 558.412,279.868 558.445,280.725 559.303 L 281.600 560.178 282.494 559.283 C 283.205 558.573,283.299 558.246,282.952 557.694 C 282.317 556.687,281.458 556.652,280.601 557.599 M190.601 587.599 C 189.865 588.412,189.868 588.445,190.725 589.303 L 191.600 590.178 192.494 589.283 C 193.205 588.573,193.299 588.246,192.952 587.694 C 192.317 586.687,191.458 586.652,190.601 587.599 M270.601 587.599 C 269.865 588.412,269.868 588.445,270.725 589.303 L 271.600 590.178 272.494 589.283 C 273.205 588.573,273.299 588.246,272.952 587.694 C 272.317 586.687,271.458 586.652,270.601 587.599 " stroke="none" fill="#22ca6c" fill-rule="evenodd"></path></g></svg>